<svg xmlns="http://www.w3.org/2000/svg" viewBox="0 0 370 370"><g data-name="Scenes"><rect x="25.94" y="36.5" width="322.12" height="291.5" rx="6.29" stroke-linejoin="round" stroke-width="4" stroke="#45413c" fill="#e8f4fa"></rect><rect x="56.94" y="264.5" width="114.82" height="40.89" rx="7.22" fill="#6dd627" stroke-linejoin="round" stroke-width="4" stroke="#45413c"></rect><path d="M93 295.06c-5.56 0-8.88-4.95-8.88-9.73 0-5.72 3.72-9.81 9-9.95h.17a8.88 8.88 0 0 1 5.17 1.62 4.29 4.29 0 0 1 1.89 3.47 3.38 3.38 0 0 1-3.52 3.53 4.9 4.9 0 0 1-1.6-.3c-.22-.07-.44-.16-.67-.25a3.41 3.41 0 0 0-1.19-.33c-.45 0-1.83 0-1.83 2.25a1.79 1.79 0 0 0 1.55 1.89h.12a2.93 2.93 0 0 0 1.83-.72 4.58 4.58 0 0 1 2.69-1 4.37 4.37 0 0 1 .78.05 2.92 2.92 0 0 1 2.37 2.93 4.8 4.8 0 0 1-.14 1.22c-.74 3.26-4.53 5.32-7.74 5.32z" fill="#ffffff"></path><path d="M93.31 276.88a7.28 7.28 0 0 1 4.22 1.26 2.84 2.84 0 0 1 1.32 2.29 1.88 1.88 0 0 1-2 2.05 3.54 3.54 0 0 1-1.12-.22 7.16 7.16 0 0 0-2.34-.66c-2.63 0-3.34 2.12-3.34 3.75a3.28 3.28 0 0 0 3 3.39h.19c2.28 0 2.9-1.73 4.51-1.73a4.1 4.1 0 0 1 .49 0 1.42 1.42 0 0 1 1.16 1.46 3.76 3.76 0 0 1-.09.86c-.61 2.72-3.9 4.21-6.31 4.21-4.55 0-7.38-4.09-7.38-8.23 0-4.56 2.83-8.33 7.58-8.45h.13m0-3h-.19c-6.1.16-10.52 5-10.52 11.45 0 7 5.28 11.23 10.38 11.23 3.76 0 8.26-2.29 9.23-6.53a6.38 6.38 0 0 0 .17-1.54 4.46 4.46 0 0 0-2.44-4 5 5 0 0 0 1.91-4.05 5.74 5.74 0 0 0-2.47-4.65 10.38 10.38 0 0 0-6.07-1.9zm-.15 10.74h.21a5.49 5.49 0 0 1 .64.22l.55.22-.36.24c-.6.41-.71.46-1 .46h-.06a.68.68 0 0 1-.13-.39 1.88 1.88 0 0 1 .13-.73z" fill="#46b000"></path><path d="M109.35 295.06c-5.56 0-8.88-4.95-8.88-9.73 0-5.72 3.71-9.81 9-9.95h.17a8.86 8.86 0 0 1 5.15 1.58 4.29 4.29 0 0 1 1.89 3.47 3.38 3.38 0 0 1-3.52 3.55 4.84 4.84 0 0 1-1.59-.3 9.1 9.1 0 0 1-.67-.25 3.41 3.41 0 0 0-1.19-.33c-.46 0-1.84 0-1.84 2.25a1.79 1.79 0 0 0 1.55 1.89h.13a2.93 2.93 0 0 0 1.83-.72 4.38 4.38 0 0 1 3.47-1 2.93 2.93 0 0 1 2.37 2.93 5.3 5.3 0 0 1-.14 1.22c-.72 3.33-4.5 5.39-7.73 5.39z" fill="#ffffff"></path><path d="M109.67 276.88a7.31 7.31 0 0 1 4.23 1.26 2.82 2.82 0 0 1 1.31 2.29 1.87 1.87 0 0 1-2 2.05 3.59 3.59 0 0 1-1.12-.22 7.1 7.1 0 0 0-2.33-.66c-2.63 0-3.34 2.12-3.34 3.75a3.28 3.28 0 0 0 3 3.39h.19c2.28 0 2.9-1.73 4.51-1.73a3.93 3.93 0 0 1 .49 0 1.42 1.42 0 0 1 1.17 1.46 3.3 3.3 0 0 1-.1.86c-.61 2.72-3.89 4.21-6.3 4.21-4.56 0-7.38-4.09-7.38-8.23 0-4.56 2.82-8.33 7.57-8.45h.13m0-3h-.19c-6.1.16-10.51 5-10.51 11.45 0 7 5.27 11.23 10.38 11.23 3.75 0 8.26-2.29 9.22-6.53a6.37 6.37 0 0 0 .18-1.54 4.45 4.45 0 0 0-2.45-4 5 5 0 0 0 1.91-4.05 5.74 5.74 0 0 0-2.47-4.65 10.36 10.36 0 0 0-6.07-1.9zm-.15 10.74h.22a5.47 5.47 0 0 1 .63.22l.56.22-.37.24c-.59.41-.7.46-1 .46a.68.68 0 0 1-.13-.39 1.93 1.93 0 0 1 .12-.73z" fill="#46b000"></path><path d="M125 295.28c-3 0-5.22-.79-6.37-2.29-1.44-1.87-1.66-5.34-1.66-7.25 0-1.62.24-7.06 3.23-9a11.21 11.21 0 0 1 5.7-1.39c5 0 5.45 3 5.45 4a3.5 3.5 0 0 1-.13 1.09c-.54 1.65-2.2 2-3.71 2.09a2.31 2.31 0 0 1 1.55 2.32 3.3 3.3 0 0 1-1.5 3 10 10 0 0 1 1.12-.08 3 3 0 0 1 3 3.06c-.02 2.75-2.51 4.45-6.68 4.45z" fill="#ffffff"></path><path d="M125.9 276.81c1.85 0 3.95.48 3.95 2.45a2.47 2.47 0 0 1 0 .61c-.64 2-5.87.25-6.36 2.19a3.81 3.81 0 0 0-.07.81 3.54 3.54 0 0 0 0 .68h1.14c1.58 0 3 0 3 1.22 0 2.34-2.41 2.29-4.22 2.48v.32a1.56 1.56 0 0 0 1.27 1.75 11.55 11.55 0 0 0 1.32.07c1 0 1.85-.22 2.75-.22a1.51 1.51 0 0 1 1.48 1.56c0 2.54-3.11 3-5.16 3-2.53 0-4.36-.64-5.19-1.71-1-1.26-1.33-3.89-1.33-6.33 0-3.09.75-6.6 2.55-7.79a9.81 9.81 0 0 1 4.87-1.14m0-3a12.63 12.63 0 0 0-6.52 1.63c-3.53 2.34-3.9 8-3.9 10.3 0 2.56.34 6.05 2 8.16 1.45 1.88 4.07 2.88 7.56 2.88 6 0 8.16-3.13 8.16-6a4.5 4.5 0 0 0-2.84-4.25 5.93 5.93 0 0 0 .24-1.71 4.73 4.73 0 0 0-.21-1.43 4.06 4.06 0 0 0 2.29-2.5 4.69 4.69 0 0 0 .21-1.58c0-4-3.75-5.45-6.95-5.45z" fill="#46b000"></path><path d="M80.25 295.23c-3 0-3.52-3-3.66-5a3 3 0 0 0-.07.32c-.33 1.59-.94 4.54-3.75 4.54a3.36 3.36 0 0 1-2.51-1.1 6.12 6.12 0 0 1-1.35-4.34 38.25 38.25 0 0 1 .69-6c.07-.44.14-.86.21-1.27.32-2 1.18-7.1 6.71-7.1 6.47 0 7.11 6.59 7.58 11.41 0 .34.07.69.11 1.09a21.17 21.17 0 0 1 .19 2.46c0 3.09-1.59 4.99-4.15 4.99z" fill="#ffffff"></path><path d="M76.52 276.81c5.09 0 5.63 5.33 6.09 10.05 0 .83.29 2.22.29 3.41 0 1.7-.56 3.46-2.65 3.46-2.66 0-2-4.75-2.34-5.48a1.86 1.86 0 0 0-1.26-.34c-.56 0-1.1.12-1.17.34-.15.49-.17.9-.3 1.41-.34 1.44-.58 4-2.41 4s-2.46-2.51-2.36-3.9a47.4 47.4 0 0 1 .88-7.08c.56-3.36 1.7-5.84 5.23-5.84m.1 7.67h.12c.81 0 1.15-.2 1.15-1.1s-.39-2.65-1.17-2.65-1.22 1.48-1.22 2.67c0 .9.34 1.08 1.12 1.08m-.1-10.67c-4.51 0-7.27 2.81-8.19 8.35l-.21 1.25a39.05 39.05 0 0 0-.71 6.23 7.54 7.54 0 0 0 1.75 5.41 4.88 4.88 0 0 0 3.61 1.58 4.38 4.38 0 0 0 3.68-1.81 4.64 4.64 0 0 0 3.8 1.91c2.61 0 5.65-1.69 5.65-6.46a22.92 22.92 0 0 0-.2-2.64c0-.36-.08-.68-.09-.94v-.12c-.47-4.77-1.25-12.76-9.08-12.76z" fill="#46b000"></path><path d="M135.41 295.37c-1.86 0-3.28-1.05-3.47-2.56a63.34 63.34 0 0 1-.3-6.9c0-2.85.17-5.68.32-7.82v-.47l.3-.37c1.4-1.74 4.64-1.87 5.6-1.87 5.58 0 9.05 3 9.05 7.73 0 4.33-3 7.45-7.51 7.88-.07.68-.14 1.35-.29 2.1v.13l-.05.13c-.54 1.39-2.27 2.02-3.65 2.02zm4-11.81a.91.91 0 0 0 .19-.57.74.74 0 0 0-.19-.56z" fill="#ffffff"></path><path d="M137.89 276.88c3.68 0 7.55 1.48 7.55 6.23 0 4.12-3.24 6.43-7.09 6.43h-.29c-.12 1.19-.17 2.14-.39 3.26a2.51 2.51 0 0 1-2.26 1.07c-.95 0-1.88-.43-2-1.24a61.06 61.06 0 0 1-.29-6.72c0-2.63.15-5.26.32-7.72.7-.87 2.6-1.31 4.43-1.31m.71 8.55a2.42 2.42 0 0 0 2.5-2.44 2 2 0 0 0-2.08-2.19 1.89 1.89 0 0 0-1.12.32v4.06a1 1 0 0 0 .69.25m-.71-11.55c-1.45 0-5 .24-6.77 2.43l-.59.74-.06.94c-.16 2.17-.33 5-.33 7.92a64.22 64.22 0 0 0 .31 7.06 4.72 4.72 0 0 0 5 3.9c1.93 0 4.24-.92 5.05-3l.1-.25.05-.27q.12-.57.18-1.08a9.21 9.21 0 0 0 7.65-9.19c0-5.61-4.14-9.23-10.55-9.23z" fill="#46b000"></path><path d="M154.39 295.37a4.2 4.2 0 0 1-3.51-1.67l-.17-.28-.05-.33a32.54 32.54 0 0 1-.16-3.65c0-1 0-2.05.08-3.07s.07-1.77.12-2.57l-.79-.08a4.13 4.13 0 0 1-2-.68c-.93-.57-1.47-1.9-1.47-3.7 0-2.64 1.76-3.84 3.4-3.84h8.11c4.44 0 5.1 2.71 5.1 4.32 0 2.8-2.71 3.39-4.59 3.67 0 1.22.08 2.69.13 4.11s.1 2.51.1 3.67V293l-.27.38a4.7 4.7 0 0 1-4.03 1.99z" fill="#ffffff"></path><path d="M153 277c2.37 0 4.31.05 5 .05 2 0 3.6.53 3.6 2.82 0 2-2.68 2.05-4.6 2.39v.34c0 1.39.07 3.31.14 5.11.05 1.2.1 2.44.1 3.61v1.19a3.25 3.25 0 0 1-2.73 1.36 2.71 2.71 0 0 1-2.24-1 30.52 30.52 0 0 1-.15-3.46c0-1 0-2 .08-3 0-1.51.14-3 .19-4-.27 0-1.43-.08-2.17-.17a2.75 2.75 0 0 1-1.36-.47c-.34-.17-.78-.95-.78-2.43s.83-2.34 1.9-2.34H153m0-3h-3.09a5 5 0 0 0-4.9 5.34c0 2.32.78 4.1 2.15 5a5.39 5.39 0 0 0 2 .83v1.23c-.05 1-.08 2-.08 3.09a32.87 32.87 0 0 0 .17 3.84l.09.66.35.56a5.64 5.64 0 0 0 4.78 2.37 6.27 6.27 0 0 0 5.2-2.66l.53-.77v-2.12c0-1.27 0-2.63-.1-3.73 0-.91-.07-1.9-.1-2.81 2-.5 4.56-1.66 4.56-4.91 0-1.36-.48-5.82-6.6-5.82h-4.92z" fill="#46b000"></path><path d="M310.7 298.3a7.23 7.23 0 0 1-7.35 7.09h-102.6a7.22 7.22 0 0 1-7.22-7.22v-26.45a7.22 7.22 0 0 1 7.22-7.22l102.73.13a7.22 7.22 0 0 1 7.22 7.22z" fill="#ff512e" stroke-linejoin="round" stroke-width="4" stroke="#45413c"></path><path d="M229.48 295.39c-5.56 0-8.88-4.95-8.88-9.73 0-5.72 3.72-9.81 9-10h.17a8.91 8.91 0 0 1 5.23 1.64 4.26 4.26 0 0 1 1.89 3.47 3.38 3.38 0 0 1-3.52 3.54 5.13 5.13 0 0 1-1.59-.29l-.67-.25a3.25 3.25 0 0 0-1.2-.33c-.45 0-1.83 0-1.83 2.25a1.79 1.79 0 0 0 1.55 1.88h.13a3 3 0 0 0 1.82-.71 4.55 4.55 0 0 1 2.69-1 3.53 3.53 0 0 1 .78.06 2.92 2.92 0 0 1 2.37 2.93 4.67 4.67 0 0 1-.14 1.21c-.78 3.32-4.57 5.33-7.8 5.33z" fill="#ffffff"></path><path d="M229.81 277.21a7.22 7.22 0 0 1 4.22 1.27 2.82 2.82 0 0 1 1.32 2.29 1.88 1.88 0 0 1-2 2 3.54 3.54 0 0 1-1.12-.22 7.15 7.15 0 0 0-2.34-.65c-2.63 0-3.34 2.11-3.34 3.75a3.26 3.26 0 0 0 3 3.38h.19c2.28 0 2.9-1.73 4.51-1.73a2.74 2.74 0 0 1 .49 0 1.42 1.42 0 0 1 1.16 1.46 3.67 3.67 0 0 1-.09.85c-.61 2.73-3.9 4.21-6.31 4.21-4.55 0-7.38-4.09-7.38-8.23 0-4.55 2.83-8.33 7.58-8.45h.13m0-3h-.19c-6.1.16-10.52 5-10.52 11.45 0 7 5.28 11.23 10.38 11.23 3.76 0 8.26-2.29 9.23-6.52a6.49 6.49 0 0 0 .17-1.54 4.47 4.47 0 0 0-2.44-4 5 5 0 0 0 1.91-4 5.76 5.76 0 0 0-2.47-4.66 10.45 10.45 0 0 0-6.07-1.9zm-.17 10.86h.21a3.24 3.24 0 0 1 .64.22l.55.21-.36.25c-.6.4-.71.45-1 .45h-.06a.68.68 0 0 1-.13-.38 1.94 1.94 0 0 1 .13-.74z" fill="#e04122"></path><path d="M245.85 295.39c-5.56 0-8.88-4.95-8.88-9.73 0-5.72 3.71-9.81 9-10h.17a8.89 8.89 0 0 1 5.15 1.59 4.26 4.26 0 0 1 1.89 3.47 3.38 3.38 0 0 1-3.52 3.54 5.13 5.13 0 0 1-1.59-.29l-.67-.25a3.2 3.2 0 0 0-1.19-.33c-.46 0-1.84 0-1.84 2.25a1.79 1.79 0 0 0 1.55 1.88h.13a3 3 0 0 0 1.83-.71 4.49 4.49 0 0 1 2.68-1 3.68 3.68 0 0 1 .79.06 2.92 2.92 0 0 1 2.37 2.93 5.15 5.15 0 0 1-.14 1.21c-.72 3.37-4.5 5.38-7.73 5.38z" fill="#ffffff"></path><path d="M246.17 277.21a7.25 7.25 0 0 1 4.23 1.27 2.81 2.81 0 0 1 1.31 2.29 1.87 1.87 0 0 1-2 2 3.59 3.59 0 0 1-1.12-.22 7.09 7.09 0 0 0-2.33-.65c-2.63 0-3.34 2.11-3.34 3.75a3.26 3.26 0 0 0 3 3.38h.19c2.28 0 2.9-1.73 4.51-1.73a2.63 2.63 0 0 1 .49 0 1.41 1.41 0 0 1 1.17 1.46 3.23 3.23 0 0 1-.1.85c-.61 2.73-3.89 4.21-6.3 4.21-4.56 0-7.38-4.09-7.38-8.23 0-4.55 2.82-8.33 7.57-8.45h.13m0-3h-.2c-6.11.16-10.52 5-10.52 11.45 0 7 5.27 11.23 10.38 11.23 3.75 0 8.26-2.29 9.22-6.52a6.49 6.49 0 0 0 .18-1.54 4.46 4.46 0 0 0-2.45-4 4.93 4.93 0 0 0 1.91-4 5.76 5.76 0 0 0-2.47-4.66 10.45 10.45 0 0 0-6.07-1.9zM246 285h.22a3.19 3.19 0 0 1 .63.22l.56.21-.37.25c-.59.4-.7.45-1 .45H246a.68.68 0 0 1-.13-.38 2 2 0 0 1 .13-.75z" fill="#e04122"></path><path d="M261.5 295.61c-3 0-5.23-.81-6.37-2.29-1.44-1.87-1.66-5.34-1.66-7.25 0-1.62.24-7.05 3.24-9a11.25 11.25 0 0 1 5.69-1.39c5.05 0 5.45 3 5.45 4a3.5 3.5 0 0 1-.13 1.09c-.54 1.65-2.2 2-3.71 2.1a2.29 2.29 0 0 1 1.55 2.31 3.3 3.3 0 0 1-1.5 3 10 10 0 0 1 1.12-.07 3 3 0 0 1 3 3.06c-.02 2.74-2.51 4.44-6.68 4.44z" fill="#ffffff"></path><path d="M262.4 277.14c1.85 0 4 .49 4 2.46a2.51 2.51 0 0 1-.05.61c-.64 2-5.87.24-6.36 2.19a3.66 3.66 0 0 0-.07.8 3.54 3.54 0 0 0 .05.68h1.14c1.58 0 3 0 3 1.22 0 2.34-2.41 2.29-4.22 2.48v.32a1.56 1.56 0 0 0 1.27 1.75 11.55 11.55 0 0 0 1.32.08c1 0 1.85-.22 2.75-.22a1.51 1.51 0 0 1 1.48 1.56c0 2.53-3.11 3-5.16 3-2.53 0-4.36-.63-5.19-1.7-1-1.27-1.33-3.9-1.33-6.34 0-3.09.75-6.59 2.55-7.79a9.81 9.81 0 0 1 4.87-1.14m0-3a12.62 12.62 0 0 0-6.52 1.64c-3.53 2.33-3.9 8-3.9 10.29 0 2.56.34 6.06 2 8.16 1.45 1.89 4.07 2.88 7.56 2.88 6 0 8.16-3.12 8.16-6a4.51 4.51 0 0 0-2.84-4.26 5.88 5.88 0 0 0 .24-1.71 4.67 4.67 0 0 0-.21-1.42 4.08 4.08 0 0 0 2.29-2.5 4.76 4.76 0 0 0 .21-1.58c0-4-3.75-5.46-7-5.46z" fill="#e04122"></path><path d="M216.75 295.56c-3 0-3.52-3-3.66-5 0 .11-.05.21-.07.32-.33 1.59-.94 4.54-3.75 4.54a3.36 3.36 0 0 1-2.51-1.1 6.11 6.11 0 0 1-1.35-4.34 38.39 38.39 0 0 1 .69-6c.07-.43.14-.86.21-1.26.32-1.95 1.18-7.11 6.71-7.11 6.47 0 7.11 6.59 7.58 11.41 0 .34.07.7.11 1.09a21.34 21.34 0 0 1 .19 2.46c0 3.09-1.59 4.99-4.15 4.99z" fill="#ffffff"></path><path d="M213 277.14c5.09 0 5.63 5.33 6.09 10.06 0 .82.29 2.21.29 3.4 0 1.71-.56 3.46-2.65 3.46-2.66 0-2-4.75-2.34-5.48a1.86 1.86 0 0 0-1.26-.34c-.56 0-1.1.12-1.17.34-.15.49-.17.9-.3 1.42-.34 1.43-.58 4-2.41 4s-2.46-2.5-2.36-3.89a47.54 47.54 0 0 1 .88-7.09c.56-3.36 1.7-5.84 5.23-5.84m.1 7.67h.12c.81 0 1.15-.2 1.15-1.1s-.39-2.65-1.17-2.65-1.22 1.48-1.22 2.68c0 .9.34 1.07 1.12 1.07m-.1-10.67c-4.51 0-7.27 2.81-8.19 8.35-.07.42-.14.83-.21 1.26a38.79 38.79 0 0 0-.71 6.22 7.57 7.57 0 0 0 1.75 5.42 4.91 4.91 0 0 0 3.61 1.57 4.38 4.38 0 0 0 3.68-1.81 4.64 4.64 0 0 0 3.8 1.91c2.61 0 5.65-1.69 5.65-6.46a23.1 23.1 0 0 0-.2-2.64c0-.36-.08-.68-.09-.94v-.12c-.47-4.77-1.25-12.76-9.08-12.76z" fill="#e04122"></path><path d="M271.91 295.71c-1.86 0-3.28-1.06-3.47-2.56a63.45 63.45 0 0 1-.3-6.9c0-2.86.17-5.68.32-7.83v-.47l.3-.36c1.4-1.74 4.64-1.88 5.6-1.88 5.58 0 9.05 3 9.05 7.73 0 4.33-3 7.45-7.51 7.88-.07.68-.14 1.36-.29 2.11v.13l-.05.12c-.56 1.39-2.27 2.03-3.65 2.03zm4-11.81a1 1 0 0 0 .19-.58.75.75 0 0 0-.19-.56z" fill="#ffffff"></path><path d="M274.39 277.21c3.68 0 7.55 1.49 7.55 6.24 0 4.11-3.24 6.42-7.09 6.42h-.29c-.12 1.2-.17 2.15-.39 3.27a2.51 2.51 0 0 1-2.26 1.07c-1 0-1.88-.44-2-1.24a61.17 61.17 0 0 1-.29-6.72c0-2.63.15-5.26.32-7.72.7-.88 2.6-1.32 4.43-1.32m.71 8.55a2.42 2.42 0 0 0 2.5-2.44 2.05 2.05 0 0 0-2.07-2.19 1.89 1.89 0 0 0-1.12.32v4.06a1 1 0 0 0 .69.25m-.71-11.55c-1.45 0-5 .24-6.77 2.43l-.59.74-.06.94c-.16 2.17-.33 5-.33 7.93a64.22 64.22 0 0 0 .31 7.06 4.72 4.72 0 0 0 5 3.9c1.93 0 4.24-.92 5-3l.1-.25.05-.27c.08-.38.14-.73.18-1.08a9.2 9.2 0 0 0 7.65-9.18c0-5.61-4.14-9.24-10.55-9.24z" fill="#e04122"></path><path d="M290.89 295.71a4.21 4.21 0 0 1-3.51-1.68l-.17-.28v-.32a32.64 32.64 0 0 1-.16-3.65c0-1 0-2 .08-3.07s.07-1.77.12-2.57l-.79-.08a4.24 4.24 0 0 1-2-.69c-.93-.56-1.47-1.9-1.47-3.7 0-2.64 1.76-3.84 3.4-3.84h7.99c4.44 0 5.1 2.71 5.1 4.33 0 2.79-2.71 3.38-4.59 3.67 0 1.21.08 2.68.13 4.11s.1 2.51.1 3.66v1.66l-.27.38a4.71 4.71 0 0 1-3.96 2.07z" fill="#ffffff"></path><path d="M289.45 277.33c2.37 0 4.31.05 4.95.05 2 0 3.6.54 3.6 2.83 0 2-2.68 2-4.6 2.38v.34c0 1.39.07 3.32.14 5.12 0 1.19.1 2.43.1 3.6v1.19a3.25 3.25 0 0 1-2.73 1.37 2.72 2.72 0 0 1-2.24-1 30.45 30.45 0 0 1-.15-3.45c0-1 0-2 .08-3 .05-1.51.14-3 .19-4-.27 0-1.43-.07-2.17-.17a2.66 2.66 0 0 1-1.36-.46c-.34-.17-.78-.95-.78-2.44s.83-2.34 1.9-2.34h3.09m0-3h-3.09a5 5 0 0 0-4.9 5.34c0 2.32.78 4.1 2.15 5a5.44 5.44 0 0 0 2 .82c0 .4 0 .82-.05 1.23-.05 1-.08 2.05-.08 3.1a33 33 0 0 0 .17 3.84l.09.65.35.56a5.65 5.65 0 0 0 4.78 2.38 6.28 6.28 0 0 0 5.2-2.67l.53-.76v-2.13c0-1.27-.05-2.63-.1-3.72 0-.92-.07-1.9-.1-2.82 2-.49 4.56-1.65 4.56-4.9 0-1.37-.48-5.83-6.6-5.83h-4.92z" fill="#e04122"></path><circle cx="101.32" cy="54.9" r="6.12" stroke="#46b000" fill="#6dd627" stroke-linejoin="round" stroke-width="4"></circle><circle cx="79.5" cy="54.9" r="6.12" fill="#ffe500" stroke="#ebcb00" stroke-linejoin="round" stroke-width="4"></circle><circle cx="57.68" cy="54.9" r="6.12" stroke="#e04122" fill="#ff512e" stroke-linejoin="round" stroke-width="4"></circle><rect x="51.77" y="75.46" width="266.45" height="161.49" rx="2.52" fill="#ffffff" stroke-linejoin="round" stroke-width="4" stroke="#45413c"></rect><path d="M83 86.18h6.53c1.63 0 3 .44 3 2.32 0 1.63-2.19 1.67-3.77 1.95v.28c0 1.13.06 2.71.12 4.18 0 1 .08 2 .08 3v1a2.64 2.64 0 0 1-2.23 1.09 2.22 2.22 0 0 1-1.83-.8 24.73 24.73 0 0 1-.12-2.83c0-.82 0-1.64.06-2.45 0-1.24.12-2.45.16-3.31-.22 0-1.18-.06-1.78-.14a2.17 2.17 0 0 1-1.11-.38c-.28-.14-.64-.78-.64-2s.68-1.91 1.53-1.91zM97.59 96a2.15 2.15 0 0 0 1.28.44 7 7 0 0 0 2.59-.54 1.11 1.11 0 0 1 .34-.06c.35 0 .65.4.83.76a1.35 1.35 0 0 1 .16.61 1.85 1.85 0 0 1-.28.94c-.81 1.38-2.83 1.81-4.38 1.78-3.55-.1-5.38-3.35-5.38-6.74a8.77 8.77 0 0 1 1.07-4.33 5.36 5.36 0 0 1 4.55-2.62c2.49 0 4.48 1.53 4.48 3.92a4.44 4.44 0 0 1-.7 2.45 6.58 6.58 0 0 1-4.62 2.33.35.35 0 0 0-.32.36.92.92 0 0 0 .38.7zm1.14-6.54a2 2 0 0 0-1.4.64 2.65 2.65 0 0 0-.71 1.87v.3c1 0 2.77-.95 2.77-2 .01-.64-.28-.84-.66-.84zm9.2 6.75a18.63 18.63 0 0 1-.14 2.79c-.16.83-.91.86-1.67.86a1.54 1.54 0 0 1-1.63-1 3.85 3.85 0 0 1-.16-1.34v-8.96c0-2.16 2.65-2.59 4.24-2.59h.2c2.85 0 5.2 1.35 5.2 4.22a5.06 5.06 0 0 1-1.53 3.81 5.25 5.25 0 0 1 1.61 4.12 1.66 1.66 0 0 1-1.85 1.88c-1.06 0-1.64-.33-1.64-1.51a10.53 10.53 0 0 0-.21-1.45 2.33 2.33 0 0 0-2.12-1.88.29.29 0 0 0-.28.28zm.18-4.59a1.7 1.7 0 0 0 .82.2 1.4 1.4 0 0 0 1.3-1.53A1.27 1.27 0 0 0 109 89a1 1 0 0 0-.84.32zm19.73 6.16c0-.89.12-2.11.12-2.93v-.63c0-1.12-.08-2.61-1-2.61-1.21 0-1.15 1.81-1.15 3.1v1.1c0 1.14 0 2.57-.56 3.17a1.48 1.48 0 0 1-1.27.54c-1.42 0-1.78-.76-1.88-2 0-.63-.06-1-.06-1.65v-1.79c0-1.46-.06-2.77-1.17-2.77s-1.32 1.29-1.32 2.71c0 .75.06 1.81.06 2.59 0 1.33-.18 3-1.75 3a2.3 2.3 0 0 1-.36 0 1.73 1.73 0 0 1-1.5-.81 6.54 6.54 0 0 1-.37-2.61c0-.7-.1-1.6-.1-2 0-1.82-.44-6.82-.48-6.92a2.41 2.41 0 0 1 1.87-.84 2.05 2.05 0 0 1 2.08 1.83 3.83 3.83 0 0 1 3-1.38 3.06 3.06 0 0 1 2.79 1.64 4 4 0 0 1 3.33-1.88 4.52 4.52 0 0 1 .52 0c2.39.22 3.41 2.65 3.41 5.46a19 19 0 0 1-.88 6.4c-.3.82-.6 1.2-1.49 1.2a1.73 1.73 0 0 1-1.84-1.92zM139 91.76l.34.22c1.59 1 3.05 2 3.05 3.87 0 3.45-3.05 4.12-5.86 4.12-1.31 0-3.79-.47-3.79-1.91 0-2.27 2.69-1.67 4.93-2.19.2 0 .3-.14.3-.28a.28.28 0 0 0-.14-.22l-1.24-.68c-2-1.17-3.49-2.41-3.49-4.56 0-2.51 2.22-4.16 6.14-4.16 2.39 0 3 1 3 2 0 2.13-4.28 1.89-5 2.19a.21.21 0 0 0-.12.18.37.37 0 0 0 0 .14 8.32 8.32 0 0 0 1.88 1.28zm14.29 6.84a5 5 0 0 1-3.29 1.26 3.73 3.73 0 0 1-3.76-3.71c0-3.71 3.6-5 6.37-5 0-.92-.12-1.74-1.17-1.74s-2 .78-2.81.78-1.24-.5-1.24-1.53c0-1.92 3.21-2.55 4.6-2.55a4.08 4.08 0 0 1 4.17 2.94 10.32 10.32 0 0 1 .32 2.79v1.06c0 .72-.06 1.53-.06 2.33a7.52 7.52 0 0 0 .58 3 3 3 0 0 1 .32.78c0 .54-.82.88-1.7.88a2.45 2.45 0 0 1-1.43-.4 2.64 2.64 0 0 1-.9-.89zm-3.59-3a1 1 0 0 0 1 .94 2.1 2.1 0 0 0 1.85-1V94.2a1.05 1.05 0 0 0-.74-.2c-1.01 0-2.11.53-2.11 1.59zm15.49 2.06.1-3c0-1.35 0-3.5-1.5-3.5a1.5 1.5 0 0 0-1.47 1.41 8.24 8.24 0 0 0-.1 1.4v2.47a7.25 7.25 0 0 1-.14 1.65 2.54 2.54 0 0 1-.46 1.1 1.73 1.73 0 0 1-1.45.58 1.65 1.65 0 0 1-1.1-.42 2.9 2.9 0 0 1-.6-1.92c-.38-5.48-.4-7.55-.68-10.52a2.6 2.6 0 0 1 1.78-.54 2.34 2.34 0 0 1 2.19 1.9 4.67 4.67 0 0 1 3.51-1.56c3.21 0 4.14 2.45 4.14 5.14v.18c0 3.17-.26 7.74-2.39 7.74-1.37.03-1.83-.91-1.83-2.11zm8.87-11.49a6.18 6.18 0 0 1 6.19 6.25c0 5.18-2.85 7.54-6.87 7.48-1.34 0-2.09-.46-2.27-1.08a16.25 16.25 0 0 1-.28-3.91c0-1.61 0-4.92.1-6.19a2.83 2.83 0 0 1 .71-2 4.64 4.64 0 0 1 2.42-.55zm.22 9.12c0 .06.25.12.43.12 1.1 0 1.92-1.25 1.92-3 0-1.25-.58-2.39-2-2.39-.17 0-.32 0-.37.14zM195.06 89a1.54 1.54 0 0 1-1.65 1.68 2.89 2.89 0 0 1-.92-.18 5.8 5.8 0 0 0-1.91-.54c-2.16 0-2.73 1.73-2.73 3.07a2.66 2.66 0 0 0 2.45 2.77c2 .08 2.49-1.42 3.84-1.42a1.8 1.8 0 0 1 .4 0 1.16 1.16 0 0 1 1 1.19 2.89 2.89 0 0 1-.08.7c-.5 2.23-3.19 3.45-5.16 3.45-3.73 0-6-3.35-6-6.74 0-3.73 2.31-6.82 6.2-6.92a6 6 0 0 1 3.56 1 2.32 2.32 0 0 1 1 1.94zm12 4c0 3.21-1.56 6.88-5.38 6.88a6.46 6.46 0 0 1-1.32-.12 4.68 4.68 0 0 1-3.49-3.35 12.66 12.66 0 0 1-.43-3.35c0-2.25.26-4.21 2-5.74a5.12 5.12 0 0 1 3.25-1.2h.08a4.5 4.5 0 0 1 4.58 2.72 10.43 10.43 0 0 1 .71 4.16zm-6.78-.48c0 2.49.6 3.53 1.5 3.53 1.11 0 1.57-1.61 1.57-3.75 0-1.19-.36-2.79-1.43-2.79-1.38.02-1.64 2.06-1.64 3.03zm15.01 5.14.1-3c0-1.35 0-3.5-1.5-3.5a1.5 1.5 0 0 0-1.47 1.41 8.24 8.24 0 0 0-.1 1.4v2.47a7.25 7.25 0 0 1-.14 1.65 2.54 2.54 0 0 1-.46 1.1 1.73 1.73 0 0 1-1.45.58 1.65 1.65 0 0 1-1.1-.42 2.9 2.9 0 0 1-.6-1.92c-.38-5.48-.4-7.55-.68-10.52a2.6 2.6 0 0 1 1.78-.54 2.34 2.34 0 0 1 2.19 1.9 4.67 4.67 0 0 1 3.51-1.56c3.21 0 4.14 2.45 4.14 5.14v.18c0 3.17-.26 7.74-2.39 7.74-1.37.03-1.83-.91-1.83-2.11zm8.87-11.49a6.18 6.18 0 0 1 6.19 6.25c0 5.18-2.85 7.54-6.87 7.48-1.34 0-2.09-.46-2.27-1.08a16.25 16.25 0 0 1-.28-3.91c0-1.61 0-4.92.1-6.19a2.83 2.83 0 0 1 .71-2 4.64 4.64 0 0 1 2.42-.55zm.22 9.12c0 .06.25.12.43.12 1.1 0 1.92-1.25 1.92-3 0-1.25-.58-2.39-2-2.39-.18 0-.32 0-.37.14zM235.39 90c0 1.18 0 2.47-.11 3.79-.08 1.63-.18 3.3-.18 4.72v.74a2.69 2.69 0 0 1-1.82.58 1.65 1.65 0 0 1-1.85-1.36c0-.54-.06-1.08-.06-1.67 0-1 .06-2.12.1-3.21s.08-2.11.08-3.17v-3.91a3.11 3.11 0 0 1 1.57-.4 2.09 2.09 0 0 1 2 1.06 6.18 6.18 0 0 1 .29 2.19zm4.79 7.18v-6.87l-1.18-.08c-1.13-.08-2.75-.2-2.75-1.85 0-2 1.64-2.06 3.33-2.08h5.94c1.23 0 2.65.22 2.67 1.66a1.77 1.77 0 0 1-1.1 1.81 7.34 7.34 0 0 1-2.11.44l-.74.06v5.58a14.33 14.33 0 0 1-.22 2.93c-.24 1-1.15 1.1-1.91 1.1a1.69 1.69 0 0 1-1.87-1.24 6.72 6.72 0 0 1-.06-1.46zM253.29 90c0 1.18-.06 2.47-.12 3.79-.08 1.63-.18 3.3-.18 4.72v.74a2.66 2.66 0 0 1-1.81.58c-.82 0-1.78-.36-1.85-1.36 0-.54-.06-1.08-.06-1.67 0-1 .06-2.12.1-3.21s.08-2.11.08-3.17v-3.91a3.15 3.15 0 0 1 1.58-.4 2.08 2.08 0 0 1 2 1.06 6.4 6.4 0 0 1 .3 2.19zm11.84 3c0 3.21-1.56 6.88-5.38 6.88a6.46 6.46 0 0 1-1.32-.12 4.65 4.65 0 0 1-3.43-3.33 12.25 12.25 0 0 1-.44-3.35c0-2.25.26-4.21 2-5.74a5.12 5.12 0 0 1 3.25-1.2h.08a4.49 4.49 0 0 1 4.58 2.72 10.43 10.43 0 0 1 .66 4.14zm-6.78-.48c0 2.49.6 3.53 1.5 3.53 1.11 0 1.57-1.61 1.57-3.75 0-1.19-.36-2.79-1.43-2.79-1.38.02-1.64 2.06-1.64 3.03zm15.01 5.14.1-3c0-1.35 0-3.5-1.5-3.5a1.51 1.51 0 0 0-1.47 1.41 8.24 8.24 0 0 0-.1 1.4v2.47a7.25 7.25 0 0 1-.14 1.65 2.54 2.54 0 0 1-.46 1.1 1.73 1.73 0 0 1-1.45.58 1.65 1.65 0 0 1-1.1-.42 2.9 2.9 0 0 1-.6-1.92c-.38-5.48-.4-7.55-.68-10.52a2.6 2.6 0 0 1 1.78-.54A2.34 2.34 0 0 1 270 88.3a4.67 4.67 0 0 1 3.51-1.56c3.21 0 4.14 2.45 4.14 5.14v.18c0 3.17-.26 7.74-2.39 7.74-1.44 0-1.9-.94-1.9-2.14zm11.28-5.9.36.24c1.59 1 3 2 3 3.87 0 3.45-3 4.12-5.86 4.12-1.32 0-3.79-.47-3.79-1.91 0-2.27 2.69-1.67 4.92-2.19.2 0 .3-.14.3-.28a.25.25 0 0 0-.14-.22l-1.23-.68c-2-1.17-3.49-2.41-3.49-4.56 0-2.51 2.21-4.16 6.14-4.16 2.39 0 3 1 3 2 0 2.13-4.29 1.89-5 2.19a.2.2 0 0 0-.11.18.35.35 0 0 0 0 .14 8.42 8.42 0 0 0 1.9 1.26zM78.05 143l.09.18c.48-1.34.71-5.41 1.82-6.25a1.65 1.65 0 0 1 1-.31c.72 0 1.47.43 1.47 1.71v.08a23.54 23.54 0 0 1-1.72 7.83c-.43 1.17-1.16 2.4-2.22 2.4-1.7 0-2.51-2.47-2.74-3.74-.34.45-1.31 3.74-3.23 3.87h-.1a2.23 2.23 0 0 1-2.08-1.52 29.47 29.47 0 0 1-1.76-9.64 1.79 1.79 0 0 1 .09-.7 2.16 2.16 0 0 1 1.35-.43 2.43 2.43 0 0 1 1.39.39c1.08.76 1 2.4 1.22 3.51.16.95.16 3.48.5 3.5.58 0 .92-3.35 2.73-3.35 1.14-.04 1.72 1.47 2.19 2.47zm9.55 2.24a1.92 1.92 0 0 0 1.15.39 6.31 6.31 0 0 0 2.33-.48.84.84 0 0 1 .3-.06c.32 0 .59.36.75.68a1.23 1.23 0 0 1 .15.56 1.6 1.6 0 0 1-.26.84c-.73 1.24-2.54 1.63-3.94 1.59-3.19-.09-4.83-3-4.83-6a7.84 7.84 0 0 1 1-3.89 4.82 4.82 0 0 1 4.09-2.36c2.24 0 4 1.38 4 3.53a4 4 0 0 1-.63 2.2 6 6 0 0 1-4.15 2.1.31.31 0 0 0-.29.32.84.84 0 0 0 .33.58zm1-5.88a1.86 1.86 0 0 0-1.25.57 2.4 2.4 0 0 0-.65 1.69 1.23 1.23 0 0 0 0 .27c.88 0 2.49-.86 2.49-1.85.04-.5-.19-.68-.57-.68zm15.29 6.39a3.34 3.34 0 0 1 1 1.85v.16c-.09.68-.79 1-1.58 1a3 3 0 0 1-1.54-.42c-1.08-.66-1.68-2.06-2.26-3.17-.27 1-.36 3.42-1.77 3.42a2 2 0 0 1-.9-.23c-.68-.39-.86-3.17-.86-5.26 0-1.35 0-2.28.06-3.16 0-.66 0-1.7.05-2.33 0-.44 0-.8.31-1a.77.77 0 0 1 .41-.11c2.61 0 2.72 2 2.85 4.76v.45c.92 0 1.54-.88 2.06-1.72.61-1 1-2 1.53-2.65a2.61 2.61 0 0 1 2-1 1.35 1.35 0 0 1 1.42 1.52c0 2.54-2.69 5-4.43 6.05.23.61 1.13 1.2 1.65 1.84zm10.05 1.01.09-2.67c0-1.22 0-3.15-1.34-3.15a1.35 1.35 0 0 0-1.33 1.27 7.51 7.51 0 0 0-.09 1.25v2.22a6.46 6.46 0 0 1-.13 1.49 2.31 2.31 0 0 1-.41 1 1.57 1.57 0 0 1-1.31.51 1.49 1.49 0 0 1-1-.37 2.59 2.59 0 0 1-.54-1.72c-.34-4.93-.36-6.79-.61-9.46a2.37 2.37 0 0 1 1.6-.48 2.09 2.09 0 0 1 2 1.7 4.17 4.17 0 0 1 3.15-1.4c2.88 0 3.73 2.2 3.73 4.62v.16c0 2.85-.24 6.95-2.15 6.95-1.25-.01-1.66-.85-1.66-1.92zm14.37-4.18c0 2.89-1.4 6.18-4.84 6.18a6 6 0 0 1-1.18-.1 4.2 4.2 0 0 1-3.13-3 11.13 11.13 0 0 1-.4-3c0-2 .23-3.78 1.81-5.16a4.59 4.59 0 0 1 2.92-1.08h.07a4 4 0 0 1 4.12 2.44 9.35 9.35 0 0 1 .63 3.72zm-6.09-.43c0 2.24.54 3.18 1.34 3.18 1 0 1.42-1.46 1.42-3.37 0-1.08-.32-2.51-1.29-2.51-1.24 0-1.47 1.83-1.47 2.7zm10.57 6.42c-3.08-.22-3.47-3.62-3.47-6.15 0-1.5.28-4.69 1.3-5.48a3 3 0 0 1 1.63-.52c1 0 1.31.75 1.31 1.76a14.5 14.5 0 0 1-.25 2.22 17.67 17.67 0 0 0-.38 2.81c0 .41.08.93.35.93h.09c.89-.17 1-3.42 2.57-3.42a1.52 1.52 0 0 1 .29 0 1.28 1.28 0 0 1 1 .65c.5.8.8 2.95 1.47 2.95s.5-1.11.5-1.63c0-1.16-.41-2.52-.41-3.65 0-1.54.84-1.94 2.36-1.94.47 0 .72.13.84.52a21.62 21.62 0 0 1 .83 5v.25c0 3.28-1.38 5.59-4 5.59a3.22 3.22 0 0 1-2.79-2 3.73 3.73 0 0 1-3.24 2.11zm17.97-4.48a4.05 4.05 0 0 1-3.74-2.17 8.72 8.72 0 0 1-.75-3.9 3.56 3.56 0 0 1 0-.63c.18-.81 1-1.11 1.81-1.11a3.55 3.55 0 0 1 1.09.16c.9.81.22 4.53 1.71 4.53 1.18 0 1.09-1.72 1.64-3.8a1 1 0 0 1 .9-.69h.3c1.42 0 1.92 1.5 1.92 3.24 0 .43 0 .88-.07 1.31v.18c-.11 1.16-.38 4.19-2 6a5 5 0 0 1-4 1.58 1.79 1.79 0 0 1-2-1.74V147c0-.71.68-1.18 1.49-1.27 1.9-.2 2.47-.7 2.7-1.47a3.17 3.17 0 0 0 .08-.37 2.23 2.23 0 0 1-1.08.2zm15.38-1.51c0 2.89-1.4 6.18-4.84 6.18a5.9 5.9 0 0 1-1.18-.1 4.22 4.22 0 0 1-3.14-3 11.15 11.15 0 0 1-.39-3c0-2 .23-3.78 1.81-5.16a4.59 4.59 0 0 1 2.92-1.08h.07a4 4 0 0 1 4.12 2.44 9.52 9.52 0 0 1 .63 3.72zm-6.09-.43c0 2.24.53 3.18 1.34 3.18 1 0 1.41-1.46 1.41-3.37 0-1.08-.32-2.51-1.29-2.51-1.23 0-1.46 1.83-1.46 2.7zm17.54-4.26v2.8a19.07 19.07 0 0 1-.12 2.36c-.36 3-1.64 5.53-5.09 5.53-1.88 0-3.6-.64-4.43-2.43a10.54 10.54 0 0 1-.88-4.69 29.43 29.43 0 0 1 .11-3.26 1.77 1.77 0 0 1 1.94-1.6c1.43 0 1.84.73 1.86 2s0 2.06.07 3.28c0 1.49.06 2.53.5 3a.95.95 0 0 0 1.6-.34c.61-1.36.52-4.41.54-4.91 0-1.66.25-3 2.22-3.08h.09c.77 0 1.47.23 1.52 1.06v.21zm7.26 10.68c-3.08-.22-3.48-3.62-3.48-6.15 0-1.5.29-4.69 1.31-5.48a2.93 2.93 0 0 1 1.63-.52c1 0 1.31.75 1.31 1.76a15.87 15.87 0 0 1-.25 2.22 17.67 17.67 0 0 0-.38 2.81c0 .41.07.93.34.93h.09c.89-.17 1-3.42 2.58-3.42a1.52 1.52 0 0 1 .29 0 1.25 1.25 0 0 1 1 .65c.5.8.81 2.95 1.47 2.95s.5-1.11.5-1.63c0-1.16-.41-2.52-.41-3.65 0-1.54.84-1.94 2.37-1.94.46 0 .71.13.84.52a21.73 21.73 0 0 1 .82 5v.25c0 3.28-1.38 5.59-4 5.59a3.25 3.25 0 0 1-2.8-2 3.71 3.71 0 0 1-3.23 2.11zm20.49-5.99c0 2.89-1.39 6.18-4.83 6.18a6 6 0 0 1-1.19-.1 4.2 4.2 0 0 1-3.13-3 11.13 11.13 0 0 1-.4-3c0-2 .24-3.78 1.82-5.16a4.57 4.57 0 0 1 2.92-1.08h.07a4 4 0 0 1 4.12 2.44 9.52 9.52 0 0 1 .62 3.72zm-6.09-.43c0 2.24.54 3.18 1.35 3.18 1 0 1.41-1.46 1.41-3.37 0-1.08-.32-2.51-1.29-2.51-1.23 0-1.47 1.83-1.47 2.7zm13.5 4.61.08-2.67c0-1.22 0-3.15-1.34-3.15a1.34 1.34 0 0 0-1.32 1.27 6.58 6.58 0 0 0-.09 1.25v2.22a6.48 6.48 0 0 1-.12 1.49 2.44 2.44 0 0 1-.41 1 1.59 1.59 0 0 1-1.31.51 1.52 1.52 0 0 1-1-.37 2.58 2.58 0 0 1-.53-1.72c-.34-4.93-.36-6.79-.61-9.46a2.33 2.33 0 0 1 1.59-.48 2.08 2.08 0 0 1 2 1.7 4.18 4.18 0 0 1 3.15-1.4c2.89 0 3.73 2.2 3.73 4.62v.16c0 2.85-.23 6.95-2.15 6.95-1.26-.01-1.67-.85-1.67-1.92zm5.09-6.24a.53.53 0 0 1-.08-.44 2.2 2.2 0 0 0 .29-1.06.93.93 0 0 0 0-.25c-.08-.15-.23-.27-.32-.41a1.55 1.55 0 0 1-.12-.59v-.26a1.45 1.45 0 0 1 .16-.5 1.29 1.29 0 0 1 1.2-.55 1.26 1.26 0 0 1 1.25.61 1.46 1.46 0 0 1 .16.78c0 .85-.82 3-1.79 3a.8.8 0 0 1-.75-.33zm6.8 5.81v-6.17l-1-.07c-1-.08-2.47-.18-2.47-1.67 0-1.81 1.47-1.84 3-1.86h5.34c1.11 0 2.38.19 2.4 1.48a1.59 1.59 0 0 1-1 1.63 6.7 6.7 0 0 1-1.9.4l-.67.05v5.05a12.28 12.28 0 0 1-.2 2.63c-.21.86-1 1-1.71 1a1.52 1.52 0 0 1-1.69-1.11 5.92 5.92 0 0 1-.1-1.36zm14.14-.88a17.58 17.58 0 0 1-.12 2.51c-.15.75-.83.77-1.51.77a1.39 1.39 0 0 1-1.47-.92 3.5 3.5 0 0 1-.14-1.2v-8.07c0-1.93 2.38-2.33 3.81-2.33h.18c2.56 0 4.68 1.22 4.68 3.8a4.49 4.49 0 0 1-1.4 3.4 4.74 4.74 0 0 1 1.45 3.71 1.5 1.5 0 0 1-1.66 1.69c-1 0-1.47-.31-1.47-1.37a10.17 10.17 0 0 0-.2-1.3 2.09 2.09 0 0 0-1.9-1.69.25.25 0 0 0-.25.25zm.16-4.12a1.57 1.57 0 0 0 .74.18 1.27 1.27 0 0 0 1.16-1.38 1.13 1.13 0 0 0-1.14-1.13 1 1 0 0 0-.76.28zm10.43 3.91a1.94 1.94 0 0 0 1.15.39 6.31 6.31 0 0 0 2.33-.48.89.89 0 0 1 .3-.06c.32 0 .59.36.75.68a1.23 1.23 0 0 1 .15.56 1.69 1.69 0 0 1-.25.84c-.74 1.24-2.55 1.63-3.94 1.59-3.19-.09-4.84-3-4.84-6a7.75 7.75 0 0 1 1-3.89 4.79 4.79 0 0 1 4.08-2.36c2.24 0 4 1.38 4 3.53a3.93 3.93 0 0 1-.63 2.2 6 6 0 0 1-4.15 2.1.31.31 0 0 0-.29.32.84.84 0 0 0 .34.58zm1-5.88a1.86 1.86 0 0 0-1.25.57 2.4 2.4 0 0 0-.65 1.69 1.23 1.23 0 0 0 0 .27c.88 0 2.49-.86 2.49-1.85.04-.5-.23-.68-.57-.68zM261 147.6a4.46 4.46 0 0 1-3 1.13 3.35 3.35 0 0 1-3.39-3.33c0-3.34 3.24-4.48 5.73-4.5 0-.82-.1-1.56-1.05-1.56s-1.78.7-2.53.7-1.11-.45-1.11-1.38c0-1.72 2.88-2.29 4.14-2.29a3.66 3.66 0 0 1 3.74 2.65 9.1 9.1 0 0 1 .29 2.51v.95c0 .64-.05 1.38-.05 2.09a6.68 6.68 0 0 0 .52 2.71 2.74 2.74 0 0 1 .29.7c0 .48-.74.78-1.53.78a2.23 2.23 0 0 1-1.29-.35 2.48 2.48 0 0 1-.76-.81zm-3.22-2.71a.86.86 0 0 0 .88.85 1.9 1.9 0 0 0 1.66-.9v-1.2a.93.93 0 0 0-.66-.18c-.92 0-1.9.54-1.9 1.43zm10.55-8.47a5.57 5.57 0 0 1 5.57 5.63c0 4.65-2.56 6.77-6.18 6.71-1.2 0-1.88-.41-2-1a14.44 14.44 0 0 1-.25-3.51c0-1.46 0-4.43.09-5.58.07-.8.23-1.54.64-1.8a4.16 4.16 0 0 1 2.13-.45zm.2 8.21a.66.66 0 0 0 .39.1c1 0 1.72-1.12 1.72-2.7 0-1.13-.52-2.15-1.79-2.15a.4.4 0 0 0-.34.12zm15.1 2.97a4.46 4.46 0 0 1-2.95 1.13 3.35 3.35 0 0 1-3.39-3.33c0-3.34 3.24-4.48 5.73-4.5 0-.82-.1-1.56-1-1.56s-1.78.7-2.53.7-1.11-.45-1.11-1.38c0-1.72 2.88-2.29 4.14-2.29a3.67 3.67 0 0 1 3.74 2.65 9.1 9.1 0 0 1 .29 2.51v3.04a6.86 6.86 0 0 0 .52 2.71 2.74 2.74 0 0 1 .29.7c0 .48-.74.78-1.53.78a2.23 2.23 0 0 1-1.29-.35 2.48 2.48 0 0 1-.91-.81zm-3.22-2.71a.86.86 0 0 0 .88.85 1.9 1.9 0 0 0 1.66-.9v-1.2a.93.93 0 0 0-.66-.18c-.9 0-1.88.54-1.88 1.43zm9.07-8.45a2.25 2.25 0 0 1 2.36 2.4v5.59c0 .84.64.91 1 .91a8.07 8.07 0 0 0 1.7-.36 4.46 4.46 0 0 1 .63 0 1.43 1.43 0 0 1 1.25.68 1.25 1.25 0 0 1 .13.59c0 2.13-2.15 2.55-4.28 2.55s-4.23-1-4.23-4v-2.52c0-1.54-.09-3-.09-4.48 0-.89.43-1.11.9-1.22a3.29 3.29 0 0 1 .63-.14zm9.05 0a2.26 2.26 0 0 1 2.36 2.4v5.59c0 .84.64.91 1 .91a8.21 8.21 0 0 0 1.7-.36 4.46 4.46 0 0 1 .63 0 1.43 1.43 0 0 1 1.25.68 1.25 1.25 0 0 1 .13.59c0 2.13-2.15 2.55-4.28 2.55s-4.23-1-4.23-4v-2.52c0-1.54-.09-3-.09-4.48 0-.89.43-1.11.9-1.22a3.29 3.29 0 0 1 .63-.14zm-226.81 27.8v-6.18l-1-.07c-1-.07-2.47-.18-2.47-1.66 0-1.81 1.47-1.85 3-1.87h5.34c1.11 0 2.38.2 2.4 1.49a1.6 1.6 0 0 1-1 1.63 6.69 6.69 0 0 1-1.9.39l-.67.06v5.04a12.28 12.28 0 0 1-.2 2.63c-.21.86-1 1-1.71 1a1.53 1.53 0 0 1-1.69-1.11 6 6 0 0 1-.1-1.35zm15.38 2.44c-.58 0-1-.07-1.29-.52a5.31 5.31 0 0 1-.45-2.56v-1l-2.06.14a18 18 0 0 1-.25 3.24c-.14.43-.41.79-1.33.79s-1.39-.18-1.59-1.16a65.64 65.64 0 0 1-.41-8.5v-.19c0-1.47.07-2.46 1.75-2.46a1.45 1.45 0 0 1 1.11.4 2.4 2.4 0 0 1 .54 1.77v2.89h2.17a6.31 6.31 0 0 0 0-.84 17.27 17.27 0 0 1 .07-2.4c.18-1.15.41-1.9 1.94-1.9.75 0 1.12.34 1.29 1.17a13.53 13.53 0 0 1 .17 2.49v3.62c0 1.64-.07 3.85-.52 4.47a1.42 1.42 0 0 1-1.09.56zm6.63-8.87c0 1.06-.06 2.22-.11 3.41-.07 1.46-.16 3-.16 4.24v.66a2.4 2.4 0 0 1-1.63.52c-.74 0-1.6-.32-1.67-1.22v-1.5c0-.93 0-1.9.09-2.88s.07-1.9.07-2.85v-3.51a2.86 2.86 0 0 1 1.42-.36 1.88 1.88 0 0 1 1.81 1 5.89 5.89 0 0 1 .27 2zm6.41 1.56.31.2c1.43.91 2.74 1.75 2.74 3.47 0 3.1-2.74 3.71-5.27 3.71-1.18 0-3.4-.43-3.4-1.72 0-2 2.42-1.5 4.42-2 .18 0 .27-.12.27-.25a.23.23 0 0 0-.12-.2L98 162c-1.79-1.05-3.13-2.16-3.13-4.1 0-2.26 2-3.74 5.52-3.74 2.15 0 2.72.91 2.72 1.77 0 1.92-3.85 1.7-4.5 2a.19.19 0 0 0-.1.16.31.31 0 0 0 0 .13 8.31 8.31 0 0 0 1.63 1.15zm6.49 3.94a1.64 1.64 0 0 1 1.74 1.49 1.85 1.85 0 0 1-2.08 1.79 1.61 1.61 0 0 1-1.61-1.4 1.85 1.85 0 0 1 1.07-1.7 2.23 2.23 0 0 1 .88-.18zm-32.02 38.11a14.16 14.16 0 0 1-.16-2.4c0-1.26-.2-1.44-1-1.44s-1.19.13-1.19 1 .09 1.25.09 1.77c0 1-.36 2-1.29 2a1.53 1.53 0 0 1-.91-.3 3.91 3.91 0 0 1-1.06-2.23 19 19 0 0 1-.34-3.76c0-.88.06-2.15.16-3.17a5.46 5.46 0 0 1 .31-1.63 1.6 1.6 0 0 1 1.56-1 1.32 1.32 0 0 1 1.43 1.5v1.63c0 .9.11 1.55 1 1.55 1.22 0 1.32-.38 1.32-2.19v-.38c0-1.34.72-2.22 1.89-2.22 1 0 1.55.41 1.68 1.85v1.65a53.7 53.7 0 0 1-.5 7.35c-.14.84-.5 1.49-1.38 1.49s-1.45-.23-1.61-1.07zm8.46-7.78c0 1.06-.06 2.22-.11 3.4-.07 1.47-.16 3-.16 4.25v.71a2.42 2.42 0 0 1-1.63.52c-.74 0-1.6-.32-1.67-1.22v-1.5c0-.93 0-1.9.09-2.88s.07-1.9.07-2.85v-3.51a2.83 2.83 0 0 1 1.42-.36 1.88 1.88 0 0 1 1.81.95 5.89 5.89 0 0 1 .27 2zm4.3 6.43v-6.18l-1-.07c-1-.07-2.48-.18-2.48-1.67 0-1.81 1.47-1.84 3-1.86h5.31c1.11 0 2.39.2 2.4 1.49a1.6 1.6 0 0 1-1 1.63 6.55 6.55 0 0 1-1.9.39l-.66.06v5.05a13 13 0 0 1-.2 2.63c-.22.86-1 1-1.72 1a1.53 1.53 0 0 1-1.69-1.11 6 6 0 0 1-.06-1.36zm13.33-9.56a.52.52 0 0 1 .07.44 2.2 2.2 0 0 0-.29 1.06.93.93 0 0 0 0 .25c.09.15.23.27.32.41a1.56 1.56 0 0 1 .13.6v.25a1.45 1.45 0 0 1-.16.5 1.3 1.3 0 0 1-1.2.55 1.26 1.26 0 0 1-1.26-.61 1.57 1.57 0 0 1-.16-.78c0-.85.83-3 1.79-3a.82.82 0 0 1 .76.33zm3.38 0a.53.53 0 0 1 .08.44 2.2 2.2 0 0 0-.29 1.06.93.93 0 0 0 0 .25c.09.15.23.27.32.41a1.56 1.56 0 0 1 .12.6v.25a1.45 1.45 0 0 1-.16.5 1.29 1.29 0 0 1-1.2.55 1.24 1.24 0 0 1-1.25-.61 1.46 1.46 0 0 1-.16-.78c0-.85.82-3 1.79-3a.8.8 0 0 1 .75.33zm10.58 9.49c0 1.25-.42 2.54-2 2.54-2 0-1.48-3.49-1.72-4a1.36 1.36 0 0 0-.93-.25c-.41 0-.8.09-.86.25-.11.36-.12.66-.21 1-.25 1.06-.43 2.92-1.78 2.92s-1.81-1.85-1.73-2.87a35 35 0 0 1 .64-5.21c.41-2.47 1.26-4.3 3.85-4.3 3.75 0 4.14 3.92 4.48 7.4.08.57.26 1.59.26 2.52zm-5.45-5c0 .66.25.78.82.78h.09c.59 0 .85-.14.85-.8s-.29-2-.86-2-.9 1.02-.9 1.92zm11.7-1.25a2.41 2.41 0 0 0-1.83 2.36c0 1.15.31 2.26 1.69 2.46a4.33 4.33 0 0 0 .53 0c.63 0 1.38-.09 1.94-.09h.14a1.29 1.29 0 0 1 1.27 1.35A2 2 0 0 1 123 202a6.61 6.61 0 0 1-2.11.31 8.23 8.23 0 0 1-2.53-.38c-2.08-.7-2.81-2.77-2.81-5 0-2.53.66-4.51 2.19-5.64a6.11 6.11 0 0 1 3.74-1.06c.66 0 2.92.25 2.92 1.81 0 .75-.23 1.4-.61 1.54-.35.22-1.97-.01-2.88.17zm9.75 0a2.41 2.41 0 0 0-1.83 2.36c0 1.15.3 2.26 1.68 2.46a4.63 4.63 0 0 0 .54 0c.63 0 1.38-.09 1.94-.09h.14a1.29 1.29 0 0 1 1.27 1.35 2 2 0 0 1-1.61 2.09 6.65 6.65 0 0 1-2.11.31 8.23 8.23 0 0 1-2.53-.38c-2.08-.7-2.81-2.77-2.81-5 0-2.53.66-4.51 2.18-5.64a6.14 6.14 0 0 1 3.75-1.06c.66 0 2.92.25 2.92 1.81 0 .75-.24 1.4-.61 1.54-.4.3-2.01.07-2.92.25zm8.56 5.25a1.94 1.94 0 0 0 1.15.39 6.31 6.31 0 0 0 2.33-.48.86.86 0 0 1 .3 0c.33 0 .59.35.76.68a1.18 1.18 0 0 1 .14.55 1.66 1.66 0 0 1-.25.84c-.74 1.24-2.55 1.63-3.94 1.6-3.19-.09-4.84-3-4.84-6.06a7.71 7.71 0 0 1 1-3.88 4.8 4.8 0 0 1 4.08-2.37c2.24 0 4 1.38 4 3.53a4 4 0 0 1-.62 2.2 6 6 0 0 1-4.16 2.1.32.32 0 0 0-.29.32.85.85 0 0 0 .34.58zm1-5.88a1.82 1.82 0 0 0-1.25.58 2.37 2.37 0 0 0-.64 1.68 2.44 2.44 0 0 0 0 .27c.88 0 2.49-.86 2.49-1.85.03-.52-.24-.7-.58-.7zm8.45 5v.77c0 .59 0 1.18-.05 1.76-.09 1.07-.29 1.89-1.47 1.89a1.83 1.83 0 0 1-1.65-.68 7.32 7.32 0 0 1-.47-3.19v-5.8a2.74 2.74 0 0 1 1.8-2.58A8.06 8.06 0 0 1 149 190c2.46 0 4.68 1 4.68 3.73s-1.49 4.19-4.3 4.19h-.75zm1.91-4.28a1 1 0 0 0-1-1.13 1.5 1.5 0 0 0-1.11.41v1.72a2.18 2.18 0 0 0 .9.18 1.13 1.13 0 0 0 1.21-1.18zm7.12 6.23v-6.18l-1-.07c-1-.07-2.47-.18-2.47-1.67 0-1.81 1.46-1.84 3-1.86h5.34c1.11 0 2.38.2 2.4 1.49a1.61 1.61 0 0 1-1 1.63 6.55 6.55 0 0 1-1.9.39l-.66.06v5.05a13 13 0 0 1-.2 2.63c-.22.86-1 1-1.72 1a1.51 1.51 0 0 1-1.68-1.11 6 6 0 0 1-.11-1.36zm8.42-5.82a.54.54 0 0 1-.07-.45 2.14 2.14 0 0 0 .29-1.05.93.93 0 0 0 0-.25c-.09-.15-.23-.27-.32-.42a1.51 1.51 0 0 1-.13-.59v-.25a1.39 1.39 0 0 1 .16-.5 1.3 1.3 0 0 1 1.2-.56 1.27 1.27 0 0 1 1.26.61 1.62 1.62 0 0 1 .16.79c0 .84-.83 3-1.79 3a.81.81 0 0 1-.76-.33zm3.37 0a.51.51 0 0 1-.07-.45 2 2 0 0 0 .28-1.05 1 1 0 0 0 0-.25c-.09-.15-.23-.27-.32-.42a1.35 1.35 0 0 1-.13-.59v-.25a1.39 1.39 0 0 1 .16-.5 1.29 1.29 0 0 1 1.2-.56 1.27 1.27 0 0 1 1.26.61 1.62 1.62 0 0 1 .16.79c0 .84-.83 3-1.79 3a.81.81 0 0 1-.75-.33zm9.69 5.82v-6.18l-1-.07c-1-.07-2.47-.18-2.47-1.67 0-1.81 1.47-1.84 3-1.86H184c1.11 0 2.38.2 2.4 1.49a1.6 1.6 0 0 1-1 1.63 6.69 6.69 0 0 1-1.9.39l-.67.06v5.05a12.28 12.28 0 0 1-.2 2.63c-.21.86-1 1-1.72 1a1.53 1.53 0 0 1-1.68-1.11 6 6 0 0 1-.05-1.36zm16.82-3.74c0 2.88-1.4 6.18-4.84 6.18a5.85 5.85 0 0 1-1.18-.11 4.19 4.19 0 0 1-3.14-3 11 11 0 0 1-.39-3c0-2 .23-3.78 1.81-5.16a4.58 4.58 0 0 1 2.92-1.07h.07a4 4 0 0 1 4.12 2.43 9.57 9.57 0 0 1 .63 3.73zm-6.09-.43c0 2.24.53 3.17 1.34 3.17 1 0 1.42-1.45 1.42-3.37 0-1.07-.33-2.51-1.3-2.51-1.22 0-1.45 1.81-1.45 2.71zm15.09-2.15a2.42 2.42 0 0 0-1.83 2.36c0 1.15.31 2.26 1.69 2.46a4.39 4.39 0 0 0 .54 0c.62 0 1.37-.09 1.93-.09h.14a1.3 1.3 0 0 1 1.28 1.35 2 2 0 0 1-1.62 2.09 6.61 6.61 0 0 1-2.11.31 8.28 8.28 0 0 1-2.53-.38c-2.07-.7-2.81-2.77-2.81-5 0-2.53.66-4.51 2.19-5.64a6.11 6.11 0 0 1 3.74-1.06c.66 0 2.92.25 2.92 1.81 0 .75-.23 1.4-.61 1.54-.37.3-1.98.07-2.92.25zm13.93 2.58c0 2.88-1.4 6.18-4.84 6.18a5.85 5.85 0 0 1-1.18-.11 4.19 4.19 0 0 1-3.14-3 11 11 0 0 1-.39-3c0-2 .23-3.78 1.81-5.16a4.58 4.58 0 0 1 2.92-1.07h.07a4 4 0 0 1 4.12 2.43 9.57 9.57 0 0 1 .63 3.73zm-6.1-.43c0 2.24.54 3.17 1.35 3.17 1 0 1.41-1.45 1.41-3.37 0-1.07-.32-2.51-1.29-2.51-1.23 0-1.47 1.81-1.47 2.71zm13.5 4.6.09-2.67c0-1.21 0-3.15-1.35-3.15a1.35 1.35 0 0 0-1.32 1.27 7.55 7.55 0 0 0-.09 1.26v2.22a6.33 6.33 0 0 1-.13 1.48 2.21 2.21 0 0 1-.41 1 1.56 1.56 0 0 1-1.31.52 1.45 1.45 0 0 1-1-.38 2.53 2.53 0 0 1-.54-1.72c-.34-4.92-.36-6.79-.61-9.46a2.33 2.33 0 0 1 1.59-.48 2.09 2.09 0 0 1 2 1.7 4.21 4.21 0 0 1 3.16-1.39c2.88 0 3.72 2.2 3.72 4.62v.16c0 2.85-.23 6.95-2.15 6.95-1.24-.01-1.65-.85-1.65-1.93zm7.58-.43v-6.18l-1-.07c-1-.07-2.48-.18-2.48-1.67 0-1.81 1.47-1.84 3-1.86h5.33c1.12 0 2.39.2 2.4 1.49a1.6 1.6 0 0 1-1 1.63 6.55 6.55 0 0 1-1.9.39l-.66.06v5.05a13 13 0 0 1-.2 2.63c-.22.86-1 1-1.72 1a1.51 1.51 0 0 1-1.68-1.14 6 6 0 0 1-.09-1.33zm11.79-6.43c0 1.06-.06 2.22-.11 3.4-.07 1.47-.16 3-.16 4.25v.71a2.4 2.4 0 0 1-1.63.52c-.74 0-1.59-.32-1.67-1.22v-1.5c0-.93 0-1.9.09-2.88s.07-1.9.07-2.85v-3.51a2.79 2.79 0 0 1 1.41-.36 1.88 1.88 0 0 1 1.81.95 5.89 5.89 0 0 1 .27 2zm7.7 6.86.09-2.67c0-1.21 0-3.15-1.34-3.15a1.37 1.37 0 0 0-1.33 1.27 7.55 7.55 0 0 0-.09 1.26v2.22a6.94 6.94 0 0 1-.12 1.48 2.21 2.21 0 0 1-.42 1 1.53 1.53 0 0 1-1.3.52 1.47 1.47 0 0 1-1-.38 2.64 2.64 0 0 1-.54-1.72c-.34-4.92-.35-6.79-.6-9.46a2.33 2.33 0 0 1 1.59-.48 2.1 2.1 0 0 1 2 1.7 4.21 4.21 0 0 1 3.15-1.39c2.89 0 3.73 2.2 3.73 4.62v.16c0 2.85-.23 6.95-2.15 6.95-1.26-.01-1.67-.85-1.67-1.93zm15.45-8.87v2.8a18.86 18.86 0 0 1-.12 2.36c-.36 3-1.63 5.54-5.09 5.54a4.5 4.5 0 0 1-4.43-2.44 10.54 10.54 0 0 1-.87-4.69 32.56 32.56 0 0 1 .1-3.26 1.77 1.77 0 0 1 1.94-1.6c1.43 0 1.84.74 1.86 2s0 2.06.07 3.28c0 1.48.06 2.52.5 3a.95.95 0 0 0 1.6-.34c.61-1.36.52-4.4.54-4.9 0-1.67.25-3.05 2.22-3.09h.09c.77 0 1.47.24 1.52 1.06v.22zm5.37 7.37a2 2 0 0 0 1.15.39 6.27 6.27 0 0 0 2.33-.48.89.89 0 0 1 .3 0c.33 0 .6.35.76.68a1.18 1.18 0 0 1 .14.55 1.66 1.66 0 0 1-.25.84c-.73 1.24-2.54 1.63-3.94 1.6-3.19-.09-4.84-3-4.84-6.06a7.81 7.81 0 0 1 1-3.88 4.8 4.8 0 0 1 4.08-2.37c2.24 0 4 1.38 4 3.53a4 4 0 0 1-.63 2.2 5.94 5.94 0 0 1-4.16 2.1.32.32 0 0 0-.29.32.85.85 0 0 0 .35.58zm1-5.88a1.83 1.83 0 0 0-1.26.58 2.37 2.37 0 0 0-.64 1.68 1.23 1.23 0 0 0 0 .27c.87 0 2.49-.86 2.49-1.85.05-.52-.22-.7-.56-.7zM78.07 214.24c0 2.89-1.4 6.18-4.84 6.18a5.9 5.9 0 0 1-1.18-.1 4.2 4.2 0 0 1-3.14-3 11.15 11.15 0 0 1-.39-3c0-2 .23-3.78 1.81-5.16a4.53 4.53 0 0 1 2.92-1.08h.07a4 4 0 0 1 4.12 2.44 9.49 9.49 0 0 1 .63 3.72zm-6.1-.43c0 2.24.54 3.17 1.35 3.17 1 0 1.41-1.45 1.41-3.36 0-1.08-.32-2.51-1.29-2.51-1.23 0-1.44 1.83-1.44 2.7zm10.58 3.3a17.59 17.59 0 0 1-.13 2.51c-.14.75-.82.77-1.5.77a1.39 1.39 0 0 1-1.47-.92 3.3 3.3 0 0 1-.15-1.2v-8.07c0-1.93 2.39-2.33 3.82-2.33h.18c2.56 0 4.67 1.22 4.67 3.8a4.52 4.52 0 0 1-1.39 3.4 4.74 4.74 0 0 1 1.45 3.71 1.51 1.51 0 0 1-1.67 1.69c-.95 0-1.47-.31-1.47-1.37a7.53 7.53 0 0 0-.2-1.3 2.08 2.08 0 0 0-1.89-1.69.26.26 0 0 0-.26.25zm.16-4.12a1.56 1.56 0 0 0 .73.18 1.27 1.27 0 0 0 1.17-1.38 1.14 1.14 0 0 0-1.15-1.17 1 1 0 0 0-.75.29zm11.66-4.57a.55.55 0 0 1 .08.45 2.17 2.17 0 0 0-.29 1.06.93.93 0 0 0 0 .25c.08.14.23.27.32.41a1.55 1.55 0 0 1 .12.59v.25a1.33 1.33 0 0 1-.16.5 1.29 1.29 0 0 1-1.2.56 1.26 1.26 0 0 1-1.25-.61 1.5 1.5 0 0 1-.16-.79c0-.84.82-3 1.79-3a.79.79 0 0 1 .75.33zm3.39 0a.54.54 0 0 1 .07.45 2.17 2.17 0 0 0-.29 1.06.93.93 0 0 0 0 .25c.09.14.23.27.32.41a1.55 1.55 0 0 1 .13.59v.25a1.33 1.33 0 0 1-.16.5 1.3 1.3 0 0 1-1.2.56 1.27 1.27 0 0 1-1.26-.61 1.6 1.6 0 0 1-.16-.79c0-.84.83-3 1.79-3a.81.81 0 0 1 .76.33zm10.57 9.44c0 1.26-.41 2.55-2 2.55-1.95 0-1.49-3.5-1.72-4a1.4 1.4 0 0 0-.93-.25c-.42 0-.81.09-.86.25-.11.36-.13.67-.22 1-.25 1.06-.43 2.92-1.77 2.92s-1.81-1.84-1.74-2.86a35.13 35.13 0 0 1 .65-5.22c.41-2.47 1.25-4.29 3.85-4.29 3.74 0 4.14 3.92 4.48 7.39.08.65.26 1.65.26 2.51zm-5.45-5.05c0 .66.26.79.83.79h.09c.59 0 .84-.14.84-.81s-.29-1.95-.86-1.95-.9 1.09-.9 1.97zm11.71-1.15a2.43 2.43 0 0 0-1.83 2.37c0 1.14.3 2.26 1.68 2.45a4.26 4.26 0 0 0 .54 0c.63 0 1.38-.09 1.93-.09h.15a1.28 1.28 0 0 1 1.27 1.34 2.07 2.07 0 0 1-1.61 2.1 7 7 0 0 1-2.12.3 8.17 8.17 0 0 1-2.52-.37c-2.08-.7-2.82-2.78-2.82-5.05 0-2.53.67-4.52 2.19-5.65a6.11 6.11 0 0 1 3.74-1.06c.67 0 2.92.26 2.92 1.81 0 .76-.23 1.4-.6 1.54-.4.37-2.01.13-2.92.31zm9.74 0a2.43 2.43 0 0 0-1.82 2.37c0 1.14.3 2.26 1.68 2.45a4.26 4.26 0 0 0 .54 0c.62 0 1.38-.09 1.93-.09h.14a1.29 1.29 0 0 1 1.28 1.34 2.07 2.07 0 0 1-1.62 2.1 6.9 6.9 0 0 1-2.11.3 8.28 8.28 0 0 1-2.53-.37c-2.07-.7-2.81-2.78-2.81-5.05 0-2.53.67-4.52 2.19-5.65a6.11 6.11 0 0 1 3.74-1.06c.66 0 2.92.26 2.92 1.81 0 .76-.23 1.4-.61 1.54-.39.37-2 .13-2.92.31zm8.57 5.23a1.86 1.86 0 0 0 1.14.4 6.06 6.06 0 0 0 2.33-.49 1.24 1.24 0 0 1 .31-.05c.32 0 .59.36.75.68a1.22 1.22 0 0 1 .14.56 1.59 1.59 0 0 1-.25.84c-.73 1.24-2.54 1.63-3.94 1.59-3.19-.09-4.84-3-4.84-6a7.82 7.82 0 0 1 1-3.89 4.81 4.81 0 0 1 4.09-2.36c2.24 0 4 1.38 4 3.53a4 4 0 0 1-.63 2.2 6 6 0 0 1-4.16 2.1.31.31 0 0 0-.28.32.8.8 0 0 0 .34.57zm1-5.87a1.84 1.84 0 0 0-1.25.57 2.4 2.4 0 0 0-.65 1.69 1.1 1.1 0 0 0 0 .26c.88 0 2.49-.86 2.49-1.84.04-.5-.23-.7-.57-.7zm8.44 4.98v2.53c-.09 1.07-.29 1.9-1.47 1.9a1.86 1.86 0 0 1-1.65-.68 7.49 7.49 0 0 1-.46-3.19v-5.8a2.71 2.71 0 0 1 1.79-2.58 7.81 7.81 0 0 1 2.26-.25c2.45 0 4.67.95 4.67 3.72s-1.48 4.19-4.3 4.19h-.75zm1.92-4.28a1 1 0 0 0-1-1.13 1.53 1.53 0 0 0-1.12.42v1.72a2.22 2.22 0 0 0 .9.18 1.14 1.14 0 0 0 1.22-1.16zm7.11 6.28v-6.17l-1-.07c-1-.08-2.47-.18-2.47-1.67 0-1.81 1.47-1.85 3-1.86h5.34c1.11 0 2.38.19 2.4 1.48a1.59 1.59 0 0 1-1 1.63 6.56 6.56 0 0 1-1.89.4l-.67.05v5.04a13 13 0 0 1-.2 2.64c-.21.86-1 1-1.72 1a1.52 1.52 0 0 1-1.68-1.11 5.92 5.92 0 0 1-.11-1.36zm8.43-5.83a.56.56 0 0 1-.08-.45 2.2 2.2 0 0 0 .29-1.06.93.93 0 0 0 0-.25c-.09-.14-.23-.27-.32-.41a1.55 1.55 0 0 1-.12-.59v-.25a1.44 1.44 0 0 1 .16-.51 1.29 1.29 0 0 1 1.2-.55 1.26 1.26 0 0 1 1.25.61 1.48 1.48 0 0 1 .16.79c0 .84-.82 3-1.79 3a.79.79 0 0 1-.75-.33zm3.36 0a.55.55 0 0 1-.07-.45 2.2 2.2 0 0 0 .29-1.06.93.93 0 0 0 0-.25c-.09-.14-.23-.27-.32-.41a1.55 1.55 0 0 1-.13-.59v-.25a1.19 1.19 0 0 1 1.37-1.06 1.26 1.26 0 0 1 1.25.61 1.58 1.58 0 0 1 .16.79c0 .84-.82 3-1.79 3a.82.82 0 0 1-.76-.33zm9.7 5.83v-6.17l-1-.07c-1-.08-2.47-.18-2.47-1.67 0-1.81 1.46-1.85 3-1.86h5.34c1.1 0 2.38.19 2.4 1.48a1.61 1.61 0 0 1-1 1.63 6.56 6.56 0 0 1-1.9.4l-.66.05v5.04a13 13 0 0 1-.2 2.64c-.22.86-1 1-1.72 1a1.52 1.52 0 0 1-1.69-1.11 6.63 6.63 0 0 1-.1-1.36zm16.82-3.76c0 2.89-1.39 6.18-4.83 6.18a6 6 0 0 1-1.19-.1 4.2 4.2 0 0 1-3.13-3 11.13 11.13 0 0 1-.4-3c0-2 .24-3.78 1.81-5.16a4.55 4.55 0 0 1 2.92-1.08h.07a4 4 0 0 1 4.12 2.44 9.32 9.32 0 0 1 .63 3.72zm-6.09-.43c0 2.24.54 3.17 1.34 3.17 1 0 1.42-1.45 1.42-3.36 0-1.08-.32-2.51-1.29-2.51-1.24 0-1.47 1.83-1.47 2.7zm19.57-3.19a1.38 1.38 0 0 1-1.49 1.51 2.54 2.54 0 0 1-.82-.16 5.21 5.21 0 0 0-1.72-.49c-1.94 0-2.46 1.56-2.46 2.76a2.4 2.4 0 0 0 2.21 2.49c1.79.07 2.24-1.27 3.45-1.27a2.17 2.17 0 0 1 .36 0 1 1 0 0 1 .86 1.07 2.76 2.76 0 0 1-.07.63c-.45 2-2.87 3.1-4.64 3.1-3.35 0-5.43-3-5.43-6.05 0-3.36 2.08-6.13 5.57-6.22a5.36 5.36 0 0 1 3.21.93 2.09 2.09 0 0 1 .97 1.7zm10.78 3.62c0 2.89-1.39 6.18-4.83 6.18a5.9 5.9 0 0 1-1.18-.1 4.2 4.2 0 0 1-3.14-3 11.15 11.15 0 0 1-.39-3c0-2 .23-3.78 1.81-5.16a4.51 4.51 0 0 1 2.91-1.08h.08a4 4 0 0 1 4.12 2.44 9.49 9.49 0 0 1 .62 3.72zm-6.09-.43c0 2.24.54 3.17 1.35 3.17 1 0 1.41-1.45 1.41-3.36 0-1.08-.32-2.51-1.29-2.51-1.23 0-1.47 1.83-1.47 2.7zm13.5 4.61.09-2.67c0-1.22 0-3.16-1.35-3.16a1.35 1.35 0 0 0-1.32 1.28 6.58 6.58 0 0 0-.09 1.25v2.22a6.48 6.48 0 0 1-.12 1.49 2.34 2.34 0 0 1-.41 1 1.56 1.56 0 0 1-1.31.52 1.52 1.52 0 0 1-1-.37 2.58 2.58 0 0 1-.53-1.72c-.34-4.93-.36-6.79-.61-9.46a2.33 2.33 0 0 1 1.59-.48 2.08 2.08 0 0 1 2 1.7 4.19 4.19 0 0 1 3.16-1.4c2.88 0 3.72 2.2 3.72 4.62v.16c0 2.85-.23 7-2.15 7-1.26-.07-1.67-.91-1.67-1.98zm7.58-.42v-6.17l-1-.07c-1-.08-2.48-.18-2.48-1.67 0-1.81 1.47-1.85 3-1.86h5.34c1.11 0 2.39.19 2.4 1.48a1.6 1.6 0 0 1-1 1.63 6.63 6.63 0 0 1-1.9.4l-.66.05v5.04a13.07 13.07 0 0 1-.19 2.64c-.22.86-1 1-1.72 1a1.52 1.52 0 0 1-1.69-1.11 6 6 0 0 1-.1-1.36zm11.79-6.44c0 1.05-.06 2.22-.11 3.4-.07 1.47-.16 3-.16 4.25v.66a2.42 2.42 0 0 1-1.63.52c-.74 0-1.6-.32-1.67-1.22 0-.48-.05-1-.05-1.5 0-.94.05-1.9.09-2.89s.07-1.9.07-2.85v-3.51a2.86 2.86 0 0 1 1.42-.36 1.89 1.89 0 0 1 1.81.95 6 6 0 0 1 .27 2zm7.7 6.86.09-2.67c0-1.22 0-3.16-1.34-3.16a1.36 1.36 0 0 0-1.33 1.28 7.51 7.51 0 0 0-.09 1.25v2.22a6.46 6.46 0 0 1-.13 1.49 2.22 2.22 0 0 1-.41 1 1.55 1.55 0 0 1-1.31.52 1.49 1.49 0 0 1-1-.37 2.64 2.64 0 0 1-.54-1.72c-.34-4.93-.36-6.79-.61-9.46a2.37 2.37 0 0 1 1.6-.48 2.09 2.09 0 0 1 2 1.7 4.17 4.17 0 0 1 3.15-1.4c2.88 0 3.73 2.2 3.73 4.62v.16c0 2.85-.24 7-2.15 7-1.25-.07-1.66-.91-1.66-1.98zm15.45-8.87c0 .73 0 1.93.05 2.4v.39a19 19 0 0 1-.13 2.37c-.35 3-1.63 5.53-5.08 5.53-1.88 0-3.6-.64-4.43-2.43a10.56 10.56 0 0 1-.88-4.7 29.61 29.61 0 0 1 .11-3.26 1.76 1.76 0 0 1 1.94-1.59c1.43 0 1.84.73 1.86 2s0 2.06.07 3.28c0 1.49.06 2.53.5 3a1 1 0 0 0 1.6-.34c.61-1.36.52-4.41.53-4.91 0-1.67.26-3 2.23-3.08h.09c.77 0 1.46.23 1.52 1.06v.21zm5.37 7.34a1.89 1.89 0 0 0 1.15.4 6.13 6.13 0 0 0 2.33-.49 1.17 1.17 0 0 1 .3-.05c.33 0 .6.36.76.68a1.22 1.22 0 0 1 .14.56 1.69 1.69 0 0 1-.25.84c-.74 1.24-2.55 1.63-3.94 1.59-3.19-.09-4.84-3-4.84-6a7.72 7.72 0 0 1 1-3.89 4.79 4.79 0 0 1 4.08-2.36c2.24 0 4 1.38 4 3.53a4 4 0 0 1-.62 2.2 6 6 0 0 1-4.16 2.1.31.31 0 0 0-.29.32.83.83 0 0 0 .34.57zm1-5.87a1.86 1.86 0 0 0-1.25.57 2.39 2.39 0 0 0-.64 1.69 2.17 2.17 0 0 0 0 .26c.88 0 2.49-.86 2.49-1.84.03-.5-.23-.7-.58-.7zm7.12 6.04a1.64 1.64 0 0 1 1.74 1.48c0 1.24-1 1.79-2.08 1.79-.64 0-1.61-.53-1.61-1.39a1.88 1.88 0 0 1 1.07-1.71 2.26 2.26 0 0 1 .88-.17z" fill="#525252"></path><path fill="#87898c" stroke="#bdbec0" stroke-linecap="round" stroke-linejoin="round" stroke-width="4" d="M81.27 109.06h207.46"></path></g></svg>