<svg xmlns="http://www.w3.org/2000/svg" viewBox="0 0 24 24"><g><path d="M23.84,13.1a5.42,5.42,0,0,0-.16-1.16,1.23,1.23,0,0,0-.44-.64,3.74,3.74,0,0,0-.85-.42c-.51-.19-1.05-.33-1.56-.49,0-.14,0-.28,0-.43a11.8,11.8,0,0,0-.16-1.87A2.6,2.6,0,0,0,20,6.77a4.5,4.5,0,0,0-1.82-1.12A9.62,9.62,0,0,0,16,5.18c.13-.29.27-.55.39-.85a3.06,3.06,0,0,0,.13-.43c0-.15.06-.3.09-.45,0-.38.06-.73.1-1.11a.33.33,0,0,0-.64-.17c-.16.34-.33.65-.48,1-.05.15-.11.29-.15.45a2.49,2.49,0,0,0-.09.46,5.91,5.91,0,0,0,0,1h-.09a24.13,24.13,0,0,0-2.82,0c-1.29,0-2.58.19-3.86.35,0-.35,0-.68,0-1a4.43,4.43,0,0,0-.06-.51,4.37,4.37,0,0,0-.12-.49C8.28,3,8.15,2.61,8,2.21a.33.33,0,0,0-.66.08c0,.42,0,.82,0,1.24a2.29,2.29,0,0,0,0,.52,2.71,2.71,0,0,0,.11.51,9.06,9.06,0,0,0,.36.91,10.83,10.83,0,0,0-3.11.45,2.73,2.73,0,0,0-1.7,1.86,5.81,5.81,0,0,0-.17.85c0,.4-.08.82-.11,1.21a.31.31,0,0,0,.09.26h0c-.4.26-1,.62-1.45,1a3.92,3.92,0,0,0-.89,1A2.71,2.71,0,0,0,.15,13,8.7,8.7,0,0,0,0,14.33a7.8,7.8,0,0,0,0,1.2,1.53,1.53,0,0,0,.24.66,2.91,2.91,0,0,0,.9.79c.46.27,1,.48,1.41.68a.31.31,0,0,0,.4-.09v.5a19,19,0,0,0,0,2.15,1.76,1.76,0,0,0,.43,1.1,2.68,2.68,0,0,0,1.17.6,7.56,7.56,0,0,0,1.79.14c.9,0,1.79,0,2.69,0,.61,0,1.21,0,1.82-.08,1.75-.14,3.52,0,5.27-.06q.68,0,1.35-.06a10.33,10.33,0,0,0,1.88-.12,1.79,1.79,0,0,0,.92-.55,3.56,3.56,0,0,0,.7-1.72,13.87,13.87,0,0,0,.1-2c.25-.14.49-.27.73-.42s.69-.46,1-.7.47-.3.67-.48a1.27,1.27,0,0,0,.32-.43,2.14,2.14,0,0,0,.17-.82A13.34,13.34,0,0,0,23.84,13.1ZM3.73,8A2.08,2.08,0,0,1,5,6.61a12.88,12.88,0,0,1,3.3-.38c1.37-.15,2.74-.28,4.11-.3a22.25,22.25,0,0,1,2.71.1,11.23,11.23,0,0,1,2.7.54,3.65,3.65,0,0,1,1.41.89,1.65,1.65,0,0,1,.37.84,5.28,5.28,0,0,1,.09,1c-1.88,0-3.77-.13-5.66-.16-1.38,0-2.76,0-4.14,0-2.16.06-4.31.25-6.45.48,0-.29,0-.59.1-.88A4.29,4.29,0,0,1,3.73,8Zm-.85,9.09a13.6,13.6,0,0,1-1.24-.8,2,2,0,0,1-.55-.61.71.71,0,0,1,0-.36c0-.33.08-.67.1-.92s0-.79.09-1.2a2.44,2.44,0,0,1,.15-.66,3.14,3.14,0,0,1,.57-.8c.3-.32.63-.62.93-.89L3,17.19A.48.48,0,0,0,2.88,17.08Zm17,2.24a2.35,2.35,0,0,1-.44,1.16.85.85,0,0,1-.55.25c-.51.08-1.07,0-1.49,0-1.75.16-3.51.07-5.27.14q-.68,0-1.35.09c-.58.05-1.17.09-1.75.11-.89,0-1.78,0-2.67,0a6.46,6.46,0,0,1-1.59-.07,1.75,1.75,0,0,1-.82-.4c-.16-.13-.17-.47-.2-.84,0-.67,0-1.45,0-1.78l-.27-7.84c1.92-.05,3.84,0,5.77,0,1.38,0,2.76,0,4.13,0,2.13,0,4.25-.12,6.36-.21v0c.06,1.64.17,3.29.23,5,0,.7,0,1.4,0,2.09A16.57,16.57,0,0,1,19.89,19.32Zm3-4.26a.56.56,0,0,1-.12.16c-.16.15-.35.29-.49.42s-.58.53-.89.78c-.08.07-.18.13-.26.19,0-.8,0-1.6-.05-2.4-.05-1-.12-2.07-.18-3.1.39.17.79.35,1.17.55a3.3,3.3,0,0,1,.61.42l.08,1.13c0,.35.13.81.16,1.24A1.53,1.53,0,0,1,22.86,15.06Z" fill="currentColor" fill-rule="evenodd"></path><path d="M15.49,18.18A12.73,12.73,0,0,0,13.63,18c-.61,0-1.22,0-1.82,0s-1.09.1-1.63.17a11.75,11.75,0,0,0-1.65.33.29.29,0,0,0-.24.34.28.28,0,0,0,.33.24c.33,0,.64,0,1,0s.91.06,1.36.07.61,0,.92,0l1-.07c.5-.06,1-.14,1.49-.18s.71-.05,1.06-.05a.33.33,0,0,0,.36-.3A.34.34,0,0,0,15.49,18.18Z" fill="currentColor" fill-rule="evenodd"></path><path d="M9.27,14.14a1.68,1.68,0,0,0,0-1.68,1.42,1.42,0,0,0-.68-.59,4.06,4.06,0,0,0-1.06-.19.33.33,0,0,0-.38.27h0a1.44,1.44,0,0,0-1,1.42,1.63,1.63,0,0,0,3.06.76Zm-.92-.57a.6.6,0,0,1-.52.31.69.69,0,0,1-.72-.57.7.7,0,0,1,.59-.83.22.22,0,0,0,.14-.05,1.93,1.93,0,0,1,.34.11.66.66,0,0,1,.34.34A.78.78,0,0,1,8.35,13.57Z" fill="currentColor" fill-rule="evenodd"></path><path d="M16.19,11.67h-.05a.29.29,0,0,0-.38-.1,2.57,2.57,0,0,0-1,.69,1.72,1.72,0,0,0-.39.8,1.82,1.82,0,0,0,.38,1.43,1.49,1.49,0,0,0,1.51.56,1.66,1.66,0,0,0,1.19-1.83A1.66,1.66,0,0,0,16.19,11.67ZM16,14a.46.46,0,0,1-.43-.19.81.81,0,0,1-.3-.59,1,1,0,0,1,.18-.59,1.9,1.9,0,0,1,.37-.38.34.34,0,0,0,.17.11.9.9,0,0,1,.54.95A.68.68,0,0,1,16,14Z" fill="currentColor" fill-rule="evenodd"></path></g></svg>