<svg xmlns="http://www.w3.org/2000/svg" fill="none" viewBox="0 0 48 48" stroke-width="3"><path fill="#8fbffa" d="M3.53896 39.7428C3.74658 42.2981 5.70187 44.2534 8.25717 44.461C11.4854 44.7233 16.636 45 24 45C31.364 45 36.5146 44.7233 39.7428 44.461C42.2981 44.2534 44.2534 42.2981 44.461 39.7428C44.7233 36.5146 45 31.364 45 24C45 16.636 44.7233 11.4854 44.461 8.25717C44.2534 5.70188 42.2981 3.74658 39.7428 3.53897C36.5146 3.27668 31.364 3 24 3C16.636 3 11.4854 3.27667 8.25718 3.53896C5.70188 3.74657 3.74658 5.70187 3.53897 8.25717C3.27668 11.4854 3 16.636 3 24C3 31.364 3.27667 36.5146 3.53896 39.7428Z"></path><path fill="#ffffff" d="M26.4065 12.0885C22.8777 14.4682 23.4524 17.8688 23.6707 19.0108C17.0834 18.6188 12.7776 14.8524 11.117 13.1029C10.747 12.7131 10.0739 12.8014 9.9193 13.3168C8.25283 18.8719 13.9285 23.934 13.9285 23.934C12.9251 23.934 10.9213 23.5923 9.77432 23.3801C9.32955 23.2979 8.91676 23.6419 9.01448 24.0849C9.76119 27.4705 14.5699 31.1957 17.711 31.1112C15.7228 33.0042 13.1967 33.7036 11.2476 33.9411C10.4962 34.0327 10.1852 35.1614 10.8768 35.4701C22.7555 40.7723 37.2106 31.6982 36.4746 17.4143L38.8683 13.9969C39.2108 13.508 38.8434 12.8377 38.2484 12.866L34.7326 13.0336C33.3338 11.3733 29.6065 9.93051 26.4065 12.0885Z"></path><path stroke="#2b0e95" stroke-linecap="round" stroke-linejoin="round" d="M3.53896 39.7428C3.74658 42.2981 5.70187 44.2534 8.25717 44.461C11.4854 44.7233 16.636 45 24 45C31.364 45 36.5146 44.7233 39.7428 44.461C42.2981 44.2534 44.2534 42.2981 44.461 39.7428C44.7233 36.5146 45 31.364 45 24C45 16.636 44.7233 11.4854 44.461 8.25717C44.2534 5.70188 42.2981 3.74658 39.7428 3.53897C36.5146 3.27668 31.364 3 24 3C16.636 3 11.4854 3.27667 8.25718 3.53896C5.70188 3.74657 3.74658 5.70187 3.53897 8.25717C3.27668 11.4854 3 16.636 3 24C3 31.364 3.27667 36.5146 3.53896 39.7428Z"></path><path stroke="#2b0e95" stroke-linecap="round" stroke-linejoin="round" d="M26.4065 12.0885C22.8777 14.4682 23.4524 17.8688 23.6707 19.0108C17.0834 18.6188 12.7776 14.8524 11.117 13.1029C10.747 12.7131 10.0739 12.8014 9.9193 13.3168C8.25283 18.8719 13.9285 23.934 13.9285 23.934C12.9251 23.934 10.9213 23.5923 9.77432 23.3801C9.32955 23.2979 8.91676 23.6419 9.01448 24.0849C9.76119 27.4705 14.5699 31.1957 17.711 31.1112C15.7228 33.0042 13.1967 33.7036 11.2476 33.9411C10.4962 34.0327 10.1852 35.1614 10.8768 35.4701C22.7555 40.7723 37.2106 31.6982 36.4746 17.4143L38.8683 13.9969C39.2108 13.508 38.8434 12.8377 38.2484 12.866L34.7326 13.0336C33.3338 11.3733 29.6065 9.93051 26.4065 12.0885Z"></path></svg>