<svg xmlns="http://www.w3.org/2000/svg" viewBox="0 0 24 24"><g><path d="M2.16,5.62a14.82,14.82,0,0,0,4,.9c2,.21,4.15.18,6,.25.61,0,1.23,0,1.84,0,1.4,0,2.81-.12,4.21-.13.76,0,1.6,0,2.41,0a6.12,6.12,0,0,0,1.75-.35A2.57,2.57,0,0,0,24,4.48a2.1,2.1,0,0,0-1.07-2.27,5.93,5.93,0,0,0-2.18-.74,24.71,24.71,0,0,0-3.17-.19l-4.49,0-7.45,0a.41.41,0,0,0-.4.42.39.39,0,0,0,.41.4L13,2.28l4.45.16a23,23,0,0,1,3,.26,4.76,4.76,0,0,1,1.7.62.83.83,0,0,1,.43.88,1.18,1.18,0,0,1-.79.81,4.62,4.62,0,0,1-1.35.26c-.78.05-1.6,0-2.34,0l-6,.18c-1.81,0-3.9.08-5.91-.06a13.86,13.86,0,0,1-3.74-.69A2.81,2.81,0,0,1,1,3.59c-.21-.41,0-.81.7-1.2a3.49,3.49,0,0,1,1.13-.33A14.22,14.22,0,0,1,4.76,2a.37.37,0,0,0,.37-.35.37.37,0,0,0-.36-.37,15.58,15.58,0,0,0-2,0,4.33,4.33,0,0,0-1.41.37C.27,2.16,0,2.81,0,3.41.06,4.28,1.06,5.18,2.16,5.62Z" fill="currentColor" fill-rule="evenodd"></path><path d="M22.89,10.21a5.93,5.93,0,0,0-2.18-.74,24.71,24.71,0,0,0-3.17-.19l-4.49,0-7.45,0a.41.41,0,0,0,0,.82l7.43.25,4.45.16a22.9,22.9,0,0,1,3,.25,4.77,4.77,0,0,1,1.7.63.83.83,0,0,1,.43.88,1.18,1.18,0,0,1-.79.81,4.62,4.62,0,0,1-1.35.26c-.78,0-1.6,0-2.34,0l-6,.18c-1.81,0-3.9.08-5.91-.06a13.86,13.86,0,0,1-3.74-.69A2.81,2.81,0,0,1,1,11.59c-.21-.41,0-.82.7-1.2a3.49,3.49,0,0,1,1.13-.33A14.22,14.22,0,0,1,4.76,10a.38.38,0,0,0,.37-.36.37.37,0,0,0-.36-.36,15.58,15.58,0,0,0-2,0,4.33,4.33,0,0,0-1.41.37C.27,10.15,0,10.81,0,11.4c.06.88,1.06,1.78,2.16,2.22a14.82,14.82,0,0,0,4,.9c2,.21,4.15.18,6,.25.61,0,1.23,0,1.84,0,1.4,0,2.81-.12,4.21-.13.76,0,1.6,0,2.41,0a6.12,6.12,0,0,0,1.75-.35A2.57,2.57,0,0,0,24,12.47,2.09,2.09,0,0,0,22.89,10.21Z" fill="currentColor" fill-rule="evenodd"></path><path d="M22.89,18.21a5.93,5.93,0,0,0-2.18-.74,24.71,24.71,0,0,0-3.17-.19l-4.49,0-7.45,0a.41.41,0,0,0,0,.82l7.43.25,4.45.16a22.9,22.9,0,0,1,3,.25,4.77,4.77,0,0,1,1.7.63.83.83,0,0,1,.43.88,1.18,1.18,0,0,1-.79.81,4.62,4.62,0,0,1-1.35.26c-.78,0-1.6,0-2.34,0l-6,.18c-1.81,0-3.9.08-5.91-.06a13.86,13.86,0,0,1-3.74-.69A2.85,2.85,0,0,1,1,19.59c-.21-.41,0-.82.7-1.2a3.49,3.49,0,0,1,1.13-.33A14.22,14.22,0,0,1,4.76,18a.38.38,0,0,0,.37-.36.36.36,0,0,0-.36-.36,15.58,15.58,0,0,0-2,0,4.33,4.33,0,0,0-1.41.37C.27,18.15,0,18.81,0,19.4c.06.88,1.06,1.78,2.16,2.22a14.82,14.82,0,0,0,4,.9c2,.21,4.15.18,6,.25.61,0,1.23,0,1.84,0,1.4,0,2.81-.12,4.21-.13.76,0,1.6,0,2.41,0a6.12,6.12,0,0,0,1.75-.35A2.57,2.57,0,0,0,24,20.47,2.09,2.09,0,0,0,22.89,18.21Z" fill="currentColor" fill-rule="evenodd"></path></g></svg>