<svg xmlns="http://www.w3.org/2000/svg" viewBox="0 0 24 24"><g><path d="M23.07,8.74a1.12,1.12,0,0,1-.29.49c-.13.11-4.39,2.82-7.69,4.51a10,10,0,0,1-3.78,1.38c-1-.15-6.65-4.06-8.91-5.7-.41-.29-.7-.51-.84-.62-.44-.32.21-.71.27-.68s-.08,0,1,.7c2.2,1.52,7.63,5.23,8.61,5.35a9.63,9.63,0,0,0,3.17-1.36c3-1.6,6.76-4.05,7.32-4.43L22,8.13a10.41,10.41,0,0,0,.27-2,4.7,4.7,0,0,0-.05-1c0-.09,0-.17-.05-.23a23.65,23.65,0,0,0-3.13,1.54c-1.9.82-4,2.16-5.6,2.9a6.86,6.86,0,0,1-1.63.54,2.66,2.66,0,0,1-1.55-.33A10.37,10.37,0,0,1,8.56,8.49L5.19,6.05c-.58-.47-1.09-1-1.7-1.46a3,3,0,0,0-1.23-.51c-.42-.07-.67,0-.81.28A4.73,4.73,0,0,0,1.16,6.2C1,7.59,1.12,7.54,1,7.61a.27.27,0,0,1-.25.07.28.28,0,0,1-.27-.11s-.1.13,0-1.42A5.51,5.51,0,0,1,.83,4a1.36,1.36,0,0,1,1.54-.67,3.72,3.72,0,0,1,1.55.59c.65.42,1.18,1,1.79,1.44L9.15,7.72a8.25,8.25,0,0,0,1.56,1,1.62,1.62,0,0,0,.93.22A5.22,5.22,0,0,0,13,8.39c1.62-.77,3.69-2.14,5.58-3,.84-.37,2.13-1.2,3-1.51A1.37,1.37,0,0,1,23,4a3.19,3.19,0,0,1,.53,2.18A10.28,10.28,0,0,1,23.07,8.74Z" fill="currentColor"></path><path d="M23.88,13.49a4.62,4.62,0,0,1-.42.31c-.48.32-1.18.69-1.55,1a73.15,73.15,0,0,1-7.13,4.57,16.51,16.51,0,0,1-2.73,1.24,1.74,1.74,0,0,1-1.12.05,29.41,29.41,0,0,1-4.65-2.83A53.51,53.51,0,0,1,.1,12.6a.31.31,0,0,1,.43-.46,58,58,0,0,0,5.25,4c2,1.38,5.56,3.3,5.56,3.3a5,5,0,0,0,.57-.13,26.46,26.46,0,0,0,3.37-1.61c2.26-1.21,4.81-2.73,6.16-3.64l2-1.15a.36.36,0,0,1,.48.54Z" fill="currentColor"></path></g></svg>